<svg xmlns="http://www.w3.org/2000/svg" xmlns:xlink="http://www.w3.org/1999/xlink" viewBox="0 0 595.28 841.89"><defs><style>.cls-1,.cls-6{fill:#ffae0c;}.cls-1,.cls-25,.cls-8{stroke:#fff;}.cls-1,.cls-25,.cls-28,.cls-8{stroke-miterlimit:10;}.cls-1,.cls-25{stroke-width:2px;}.cls-2{isolation:isolate;}.cls-3,.cls-34,.cls-36{fill:#2c2c2c;}.cls-4{font-size:36px;font-family:NOVAegular, NOVA;}.cls-10,.cls-23,.cls-29,.cls-31,.cls-32,.cls-33,.cls-35,.cls-38,.cls-4,.cls-41,.cls-42,.cls-44{fill:#fff;}.cls-5{font-size:20px;fill:#7f5d41;}.cls-29,.cls-33,.cls-37,.cls-42,.cls-5{font-family:Poppins-Medium, Poppins;font-weight:500;}.cls-7{clip-path:url(#clip-path);}.cls-25,.cls-28,.cls-43,.cls-8{fill:none;}.cls-9{fill:#1a1a1a;}.cls-11{fill:#fd9a8b;}.cls-12,.cls-17{fill:#fd7058;}.cls-13,.cls-15{opacity:0.55;}.cls-13{fill:url(#Degradado_sin_nombre_7);}.cls-14{fill:#ebb994;}.cls-15{fill:url(#Degradado_sin_nombre_7-2);}.cls-16{fill:#ffd2b0;}.cls-17{opacity:0.45;}.cls-18{fill:#1f2b4a;}.cls-19{fill:#6e2e1c;}.cls-20{fill:#333;}.cls-21{fill:#c1272d;}.cls-22{fill:#a7b9eb;opacity:0.77;mix-blend-mode:hue;}.cls-23{opacity:0.22;}.cls-24{fill:#300621;}.cls-26{fill:#f9f9f9;}.cls-27{fill:#eaeaea;}.cls-28{stroke:#fcfcfc;}.cls-29,.cls-34,.cls-37,.cls-38,.cls-39{font-size:8px;}.cls-30{fill:#fcfcfc;}.cls-31{font-size:25px;font-family:Poppins-Bold, Poppins;font-weight:700;}.cls-32{font-size:14px;}.cls-32,.cls-34,.cls-35,.cls-36,.cls-38,.cls-39,.cls-41{font-family:Poppins-SemiBold, Poppins;font-weight:600;}.cls-33{font-size:9px;}.cls-35,.cls-42{font-size:12px;}.cls-36{font-size:7.07px;}.cls-37,.cls-39,.cls-40{fill:#f2f2f2;}.cls-41{font-size:6.41px;}.cls-44{font-size:8.77px;font-family:FantasqueSansMonoNerdFontComplete-Bold-Italic, FantasqueSansMono Nerd Font;font-style:italic;}</style><clipPath id="clip-path" transform="translate(0.17 0.21)"><circle class="cls-1" cx="289.51" cy="157.73" r="47.64"/></clipPath><linearGradient id="Degradado_sin_nombre_7" x1="289.87" y1="168.71" x2="291.35" y2="192.35" gradientUnits="userSpaceOnUse"><stop offset="0.44" stop-color="#fa0047" stop-opacity="0.53"/><stop offset="1" stop-color="#fa0047" stop-opacity="0"/></linearGradient><linearGradient id="Degradado_sin_nombre_7-2" x1="287.96" y1="129.04" x2="291.4" y2="164.97" xlink:href="#Degradado_sin_nombre_7"/></defs><title>cv arfy</title><g class="cls-2"><g id="CV"><rect class="cls-3" width="595.28" height="841.89"/><text class="cls-4" transform="translate(211.06 76.65)">Arfy slowy</text><text class="cls-5" transform="translate(84.43 121.28)">Work<tspan x="0" y="24">Experience</tspan></text><text class="cls-5" transform="translate(426.3 127.56)">Contact</text><text class="cls-5" transform="translate(52.73 520.43)">Passion</text><text class="cls-5" transform="translate(48.37 641.01)">Language</text><text class="cls-5" transform="translate(406.76 558.8)">Programming<tspan x="0" y="24">Skils</tspan></text><text class="cls-5" transform="translate(225.4 553.69)">Education</text><circle class="cls-6" cx="289.68" cy="157.95" r="47.64"/><g class="cls-7"><rect class="cls-6" x="123.76" y="13.38" width="350.72" height="414.88"/><rect class="cls-8" x="123.76" y="13.38" width="350.72" height="414.88"/><path class="cls-9" d="M312.3,172.27l2.22-4.35a17.79,17.79,0,0,0,1.3-12.14c-1.53-6.58,3.06-14.54-1.26-22-3.35-5.79-8.11-5.67-11.34-4.69-2.19-4.78-8.54-7.41-21.23-5.79,0,0-15.63,2.53-15.45,15,0,0-11.55,12.32-1.64,20.8l4.82,16.27h0a10,10,0,0,0,.06,2.38,7.6,7.6,0,0,0,3,5.3c1.65,1.09,3.71,1.19,5.67,1.25q10.37.32,20.74.08c2.91-.06,6-.2,8.49-1.69,3.44-2,5-6.33,4.62-10.41Z" transform="translate(0.17 0.21)"/><path class="cls-9" d="M285.16,125.19c15.31-.89,18.06,3.92,18.06,3.92-2.19-4.78-8.54-7.41-21.23-5.79,0,0-14.75,2.39-15.42,13.93A21.41,21.41,0,0,1,285.16,125.19Z" transform="translate(0.17 0.21)"/><path class="cls-9" d="M316.33,144.16h0c.32-3.44.21-7-1.77-10.36-3.35-5.79-8.11-5.67-11.34-4.69C303.22,129.11,315,130.26,316.33,144.16Z" transform="translate(0.17 0.21)"/><path class="cls-10" d="M312.29,197.37c-11.91-4.79-15.82-10.74-14.81-19.31H284.4c1,8.57-2.91,14.52-14.81,19.31s-13.5,10-13.5,10h69.69S324.19,202.15,312.29,197.37Z" transform="translate(0.17 0.21)"/><path class="cls-11" d="M278.78,192.26l9.09,9a4.21,4.21,0,0,0,5.62.26L304,192.93c-5.4-4-7.19-8.76-6.47-14.87H284.4C285.08,183.83,283.52,188.42,278.78,192.26Z" transform="translate(0.17 0.21)"/><path class="cls-12" d="M297.48,178.06H284.4c.49,4.18-.2,7.73-2.41,10.83a19.83,19.83,0,0,0,17.84-.06C297.66,185.74,297,182.21,297.48,178.06Z" transform="translate(0.17 0.21)"/><path class="cls-13" d="M278.78,192.26l9.09,9a4.21,4.21,0,0,0,5.62.26L304,192.93c-5.4-4-7.19-8.76-6.47-14.87H284.4C285.08,183.83,283.52,188.42,278.78,192.26Z" transform="translate(0.17 0.21)"/><path class="cls-11" d="M274,162.51c2.2,4.19,1.28,9-2,10.74s-7.8-.25-10-4.44-1.27-9,2.06-10.75S271.83,158.31,274,162.51Z" transform="translate(0.17 0.21)"/><path class="cls-12" d="M272.1,170.52c0-.17-.05-.32-.06-.49,0,.12,0,.22,0,.3a6.33,6.33,0,0,0-.37-2.1,10.18,10.18,0,0,0-8.37-7.82,22.09,22.09,0,0,1,6.77,6.13c-2.39-1-6.08,1.09-6.08,1.09,4.38-1.16,6.37-.2,7.28.91A10,10,0,0,1,272.1,170.52Z" transform="translate(0.17 0.21)"/><path class="cls-11" d="M307.67,162.51c-2.19,4.19-1.27,9,2.06,10.74s7.8-.25,10-4.44,1.28-9-2.05-10.75S309.87,158.31,307.67,162.51Z" transform="translate(0.17 0.21)"/><path class="cls-12" d="M309.6,170.52c0-.17,0-.32.06-.49,0,.12,0,.22-.05.3a6.08,6.08,0,0,1,.37-2.1,10.18,10.18,0,0,1,8.37-7.82,21.85,21.85,0,0,0-6.77,6.13c2.39-1,6.08,1.09,6.08,1.09-4.38-1.16-6.37-.2-7.28.91A9.22,9.22,0,0,0,309.6,170.52Z" transform="translate(0.17 0.21)"/><path class="cls-14" d="M284.72,138.64a14.05,14.05,0,0,0-14.06,13.91l-.14,13.4c0,12.26,9.1,22.2,20.33,22.2s20.33-9.94,20.33-22.2l0-14.21c0-7.24-5-16.55-12.24-16.55Z" transform="translate(0.17 0.21)"/><path class="cls-15" d="M284.72,138.64a14.05,14.05,0,0,0-14.06,13.91l-.14,13.4c0,12.26,9.1,22.2,20.33,22.2s20.33-9.94,20.33-22.2l0-14.21c0-7.24-5-16.55-12.24-16.55Z" transform="translate(0.17 0.21)"/><path class="cls-16" d="M290.85,185.17a23.48,23.48,0,0,1-17.15-7.31,19.44,19.44,0,0,0,34.3,0A23.5,23.5,0,0,1,290.85,185.17Z" transform="translate(0.17 0.21)"/><path class="cls-17" d="M286.43,175.36a8.86,8.86,0,0,0,7.74.71,4.6,4.6,0,0,1-4,2A4.42,4.42,0,0,1,286.43,175.36Z" transform="translate(0.17 0.21)"/><path class="cls-18" d="M301.31,160.1c0,1.6-.54,2.89-1.2,2.89s-1.21-1.29-1.21-2.89.54-2.88,1.21-2.88S301.31,158.51,301.31,160.1Z" transform="translate(0.17 0.21)"/><path class="cls-19" d="M305.79,156.94c.15-.09-6.53-4.31-10.66-4.16-.05.07.71-4.25,6.18-2.29C306.62,152.68,305.74,157,305.79,156.94Z" transform="translate(0.17 0.21)"/><path class="cls-18" d="M280.39,160.1c0,1.6.54,2.89,1.2,2.89s1.21-1.29,1.21-2.89-.54-2.88-1.21-2.88S280.39,158.51,280.39,160.1Z" transform="translate(0.17 0.21)"/><path class="cls-19" d="M275.3,156.94c-.15-.09,6.53-4.31,10.66-4.16.05.07-.1-4.83-5.57-2.87A7.77,7.77,0,0,0,275.3,156.94Z" transform="translate(0.17 0.21)"/><path class="cls-12" d="M278.7,169.91a.59.59,0,0,1-.23,0,.54.54,0,0,1-.25-.72l1.69-3.49a.53.53,0,0,1,1,.47l-1.69,3.49A.53.53,0,0,1,278.7,169.91Z" transform="translate(0.17 0.21)"/><path class="cls-12" d="M275.33,169.91a.68.68,0,0,1-.23,0,.55.55,0,0,1-.25-.72l1.69-3.49a.53.53,0,0,1,.71-.24.52.52,0,0,1,.25.71l-1.69,3.49A.53.53,0,0,1,275.33,169.91Z" transform="translate(0.17 0.21)"/><path class="cls-12" d="M302.68,169.91a.53.53,0,0,1-.48-.3l-1.69-3.49a.52.52,0,0,1,.25-.71.53.53,0,0,1,.71.24l1.69,3.49a.55.55,0,0,1-.25.72A.68.68,0,0,1,302.68,169.91Z" transform="translate(0.17 0.21)"/><path class="cls-12" d="M287.53,168.14c0,1.39,1.48,2.51,3.32,2.51s3.32-1.12,3.32-2.51a3.34,3.34,0,0,0-6.64,0Z" transform="translate(0.17 0.21)"/><path class="cls-12" d="M306.05,169.91a.55.55,0,0,1-.49-.3l-1.68-3.49a.52.52,0,0,1,.25-.71.53.53,0,0,1,.71.24l1.69,3.49a.55.55,0,0,1-.25.72A.68.68,0,0,1,306.05,169.91Z" transform="translate(0.17 0.21)"/><path class="cls-12" d="M286.08,173.79c-.26-.17-.5-.34-.7-.5a.57.57,0,0,1,.71-.9c.2.16,4.78,3.74,8.05.48a.57.57,0,0,1,.81.81C292.09,176.53,288.23,175.2,286.08,173.79Z" transform="translate(0.17 0.21)"/><path class="cls-20" d="M313.25,146l-10-15.79L279.06,137l-13,14.51a41.54,41.54,0,0,0,4.43,2.73s.71-6.83,16.36-7c10.27-.12,13.67-6.06,15-10.87.29,5.61.52,11.52,4.08,14.2a7.78,7.78,0,0,0,7.28,1.39Z" transform="translate(0.17 0.21)"/><path class="cls-21" d="M290.88,201.57,284,205.05a1.7,1.7,0,0,1-2.46-1.52v-6.95a1.7,1.7,0,0,1,2.46-1.52l6.91,3.48a1.71,1.71,0,0,1,.93,1.52h0A1.68,1.68,0,0,1,290.88,201.57Z" transform="translate(0.17 0.21)"/><path class="cls-21" d="M291.86,201.57l6.9,3.48a1.7,1.7,0,0,0,2.47-1.52v-6.95a1.71,1.71,0,0,0-2.47-1.52l-6.9,3.48a1.72,1.72,0,0,0-.94,1.52h0A1.69,1.69,0,0,0,291.86,201.57Z" transform="translate(0.17 0.21)"/><path class="cls-21" d="M291.37,203.27a3.33,3.33,0,1,1,3.33-3.33A3.33,3.33,0,0,1,291.37,203.27Z" transform="translate(0.17 0.21)"/><circle class="cls-22" cx="279.18" cy="162.96" r="8.41"/><path class="cls-23" d="M286.77,159.5l-12.89,9.9a8.41,8.41,0,0,0,12.89-9.9Z" transform="translate(0.17 0.21)"/><path class="cls-23" d="M279.58,154.37l-8.48,5.55a8.25,8.25,0,0,0-.5,2.83c0,.33,0,.66.06,1l11.73-8.68A8.22,8.22,0,0,0,279.58,154.37Z" transform="translate(0.17 0.21)"/><path class="cls-24" d="M279,154.34a8.41,8.41,0,1,1-8.41,8.41,8.41,8.41,0,0,1,8.41-8.41m0-.73a9.14,9.14,0,1,0,9.13,9.14,9.15,9.15,0,0,0-9.13-9.14Z" transform="translate(0.17 0.21)"/><path class="cls-22" d="M311.11,162.75a8.41,8.41,0,1,1-8.41-8.41A8.42,8.42,0,0,1,311.11,162.75Z" transform="translate(0.17 0.21)"/><path class="cls-23" d="M307.42,155.79l-11.45,12a8.41,8.41,0,0,0,3.94,2.89l10.71-10.73A8.47,8.47,0,0,0,307.42,155.79Z" transform="translate(0.17 0.21)"/><path class="cls-24" d="M302.7,154.34a8.41,8.41,0,1,1-8.41,8.41,8.41,8.41,0,0,1,8.41-8.41m0-.73a9.14,9.14,0,1,0,9.13,9.14,9.15,9.15,0,0,0-9.13-9.14Z" transform="translate(0.17 0.21)"/><path class="cls-24" d="M287.66,161.16l-.6-.66a6.42,6.42,0,0,1,7.33-.55l-.44.78A5.51,5.51,0,0,0,287.66,161.16Z" transform="translate(0.17 0.21)"/></g><circle class="cls-25" cx="289.68" cy="157.95" r="47.64"/><g id="iconcenter"><path class="cls-10" d="M397.56,424.27c.82.15,1.65.25,2.45.47a11.53,11.53,0,0,1,6.67,4.87,11.94,11.94,0,0,1,2,6.79v16.4a11.72,11.72,0,0,1-4.21,9.29,11.25,11.25,0,0,1-8.32,2.79,11.58,11.58,0,0,1-9.68-6.07,11.37,11.37,0,0,1-1.5-5.81c0-5.6,0-11.2,0-16.79a11.61,11.61,0,0,1,6.14-10.46,10.82,10.82,0,0,1,4.54-1.41l.35-.07Zm-2,2.53a7.65,7.65,0,0,0-2.64.75,9.21,9.21,0,0,0-5.53,8.76q0,8.28,0,16.56a11.4,11.4,0,0,0,.33,2.66A9.4,9.4,0,0,0,406.21,453q0-8.4,0-16.79a9.39,9.39,0,0,0-6.4-9,17.53,17.53,0,0,0-1.73-.44,1,1,0,0,0-.06.15c0,2,0,4.08,0,6.11a.52.52,0,0,0,.25.34,3.24,3.24,0,0,1,1.82,2.95c0,2.05,0,4.1,0,6.15a3.31,3.31,0,0,1-4.45,3.12,3,3,0,0,1-2.12-2.8c-.08-2.16-.06-4.33,0-6.5a3.24,3.24,0,0,1,1.87-3,.5.5,0,0,0,.21-.4c0-1.93,0-3.86,0-5.79C395.58,427,395.56,426.93,395.56,426.8Zm.34,12.63v2.9a1,1,0,0,0,.63,1c.63.18,1.14-.24,1.14-1,0-2,0-3.92,0-5.88a1.63,1.63,0,0,0,0-.31.83.83,0,0,0-.64-.68.78.78,0,0,0-.9.35,1.57,1.57,0,0,0-.19.71C395.89,437.5,395.9,438.47,395.9,439.43Z" transform="translate(0.17 0.21)"/><path class="cls-10" d="M178.42,460.41c-1.33,0-2.56,0-3.8,0a4.89,4.89,0,0,1-4.53-3.87,7.24,7.24,0,0,1-.13-1.47q0-17.31,0-34.61c0-3.25,2.06-5.39,5.22-5.39h21.25c1.22,0,1.66.45,1.66,1.71v5.66h2.74c1.3,0,1.72.43,1.72,1.77V458.7c0,1.29-.42,1.73-1.64,1.73H189.59v5.79c0,1.39-1,2-2.16,1.26-1-.59-2-1.17-2.92-1.79a.83.83,0,0,0-1,0c-.94.62-1.95,1.13-2.87,1.78a1.36,1.36,0,0,1-2.2-1.27c.08-1.7,0-3.41,0-5.11Zm-5.92-36V455c0,1.91.88,2.82,2.74,2.82H199.4l.57,0V425.07H175.68A6,6,0,0,1,172.5,424.45Zm23-6.72-.52,0H175.15a4.22,4.22,0,0,0-.79.07,2.35,2.35,0,0,0-1.77,2.89,2.39,2.39,0,0,0,2.51,1.77H195c.18,0,.37,0,.57,0ZM181,464.16c.69-.42,1.33-.74,1.9-1.16a1.71,1.71,0,0,1,2.24,0c.59.42,1.23.75,1.87,1.14v-3.68h-6Z" transform="translate(0.17 0.21)"/><path class="cls-26" d="M186.27,440.11H180.8a1.29,1.29,0,0,1-1.3-1.68,1.17,1.17,0,0,1,.91-.89,3.16,3.16,0,0,1,.69-.06h10.29c1.07,0,1.68.47,1.68,1.31s-.59,1.32-1.66,1.32Z" transform="translate(0.17 0.21)"/><path class="cls-26" d="M186.26,445.39c-1.83,0-3.65,0-5.47,0a1.28,1.28,0,0,1-1.29-1.68,1.18,1.18,0,0,1,.92-.89,3.64,3.64,0,0,1,.74-.06h10.61a1.3,1.3,0,0,1,1.3,1.31,1.29,1.29,0,0,1-1.35,1.31C189.9,445.4,188.08,445.39,186.26,445.39Z" transform="translate(0.17 0.21)"/><path class="cls-10" d="M369.85,317.93a1.28,1.28,0,0,1,1.18-.53h48.25c1,0,1.2.24,1.2,1.19v39.79c0,.95-.24,1.19-1.2,1.19H371a1.29,1.29,0,0,1-1.18-.52Zm48.93,1.21H371.56v38.72h47.22Z" transform="translate(0.17 0.21)"/><path class="cls-10" d="M378.28,325.84v7.37c0,.78-.27,1.05-1,1.06h-3c-.71,0-1-.31-1-1V321.82c0-.74.3-1,1.06-1h11.36c.8,0,1.09.28,1.09,1.06,0,1,0,2,0,2.92,0,.78-.3,1.08-1.07,1.08h-7.38Zm-3.34-3.34v10h1.65v-7.25c0-.86.28-1.13,1.12-1.14h6.77l.54,0V322.5Z" transform="translate(0.17 0.21)"/><path class="cls-10" d="M412.05,325.84h-7.44c-.69,0-1-.3-1-1q0-1.53,0-3.06c0-.7.31-1,1-1q5.75,0,11.51,0c.69,0,1,.3,1,1v11.51a.86.86,0,0,1-1,1h-3c-.8,0-1.07-.27-1.07-1.06v-7.37Zm-6.74-1.69h7.27c.89,0,1.16.27,1.16,1.15v7.24h1.64v-10H405.31Z" transform="translate(0.17 0.21)"/><path class="cls-10" d="M378.28,351.15h7.54a.84.84,0,0,1,.91.89c0,1.08,0,2.17,0,3.26a.83.83,0,0,1-1,.9H374.17a.85.85,0,0,1-.95-.95V343.7a.85.85,0,0,1,1-1h3.06c.74,0,1,.28,1,1v7.41ZM385,354.5v-1.66h-7.25c-.89,0-1.16-.27-1.16-1.15v-7.25h-1.66V354.5Z" transform="translate(0.17 0.21)"/><path class="cls-10" d="M412.05,351.15v-7.31c0-.87.25-1.11,1.12-1.11h3a.85.85,0,0,1,1,1v11.51c0,.69-.31,1-1,1H404.6c-.69,0-1-.3-1-1q0-1.53,0-3.06c0-.69.32-1,1-1h7.44Zm3.35-6.7h-1.66v7.2c0,.92-.26,1.19-1.17,1.19h-7.24v1.65H415.4Z" transform="translate(0.17 0.21)"/><path class="cls-10" d="M381,395.26V376.09a3.8,3.8,0,0,1,2.19-3.75,4.41,4.41,0,0,1,1.82-.42q11.56,0,23.11,0a3.91,3.91,0,0,1,4,4.09c0,.48,0,1,0,1.46v36.87a4.08,4.08,0,0,1-1.53,3.46,3.87,3.87,0,0,1-2.44.82H385a3.85,3.85,0,0,1-3.95-3.85c0-.58,0-1.16,0-1.75Zm29.58-16.35H403.4a.68.68,0,0,0-.39.29c-.39.55-.77,1.12-1.13,1.7a.64.64,0,0,1-.62.34c-3.15,0-6.3,0-9.44,0a.78.78,0,0,1-.54-.28c-.4-.55-.77-1.12-1.13-1.69a.69.69,0,0,0-.67-.36c-2.16,0-4.31,0-6.47,0l-.46,0v35.47a3.61,3.61,0,0,0,.07.87,2.36,2.36,0,0,0,2.52,1.77h22.67c1.87,0,2.76-.9,2.76-2.78V378.91Zm-28-1.55h7.73a.67.67,0,0,1,.67.35c.35.58.73,1.14,1.13,1.69a.81.81,0,0,0,.54.29q3.92,0,7.83,0a.74.74,0,0,0,.5-.27c.41-.56.79-1.14,1.16-1.73a.64.64,0,0,1,.63-.33h7.83a17.37,17.37,0,0,0-.11-2.09,2.32,2.32,0,0,0-2.49-1.81H385.1a3.24,3.24,0,0,0-.44,0,2.27,2.27,0,0,0-2.06,1.89A16.36,16.36,0,0,0,382.58,377.36Z" transform="translate(0.17 0.21)"/><path class="cls-10" d="M396.56,415.5h-2.24a2.34,2.34,0,1,1,0-4.67h4.43a2.34,2.34,0,1,1,0,4.67Zm0-3.12h-2.19c-.59,0-.92.29-.92.77s.33.78.92.78h4.37a.8.8,0,0,0,.91-.75c0-.47-.34-.8-.91-.8Z" transform="translate(0.17 0.21)"/><path class="cls-10" d="M386.41,407.7v1.53h-3.06v-3h1.52v1.51Z" transform="translate(0.17 0.21)"/><path class="cls-10" d="M408.22,406.18h1.55v3.05h-3.06v-1.5h1.51Z" transform="translate(0.17 0.21)"/><path class="cls-10" d="M395,375v1.51H392.7V375Z" transform="translate(0.17 0.21)"/><path class="cls-10" d="M398.14,376.55v-1.5h2.27v1.5Z" transform="translate(0.17 0.21)"/><g id="laptop"><g id="laptop-2" data-name="laptop"><rect class="cls-25" x="241.55" y="395.47" width="99.9" height="68.68" rx="3.15"/><rect class="cls-8" x="250.1" y="409.34" width="10.54" height="5.15" rx="1.5"/><rect class="cls-8" x="276.01" y="439.83" width="30.4" height="16.03" rx="1.5"/><rect class="cls-8" x="262.12" y="409.34" width="6.07" height="6.07" rx="1.6"/><rect class="cls-8" x="250.1" y="416.4" width="13.85" height="7.22" rx="1.5"/><rect class="cls-8" x="250.1" y="425.22" width="10.54" height="5.15" rx="1.5"/><rect class="cls-8" x="261.32" y="425.53" width="6.87" height="4.59" rx="1.5"/><rect class="cls-8" x="268.87" y="425.22" width="7.45" height="5.15" rx="1.5"/><rect class="cls-8" x="277.81" y="425.22" width="28.22" height="5.15" rx="1.5"/><rect class="cls-8" x="273.29" y="416.98" width="6.07" height="6.07" rx="1.6"/><rect class="cls-8" x="269.56" y="409.7" width="6.07" height="6.07" rx="1.6"/><rect class="cls-8" x="265.84" y="416.98" width="6.07" height="6.07" rx="1.6"/><rect class="cls-8" x="284.33" y="409.7" width="6.07" height="6.07" rx="1.6"/><rect class="cls-8" x="280.03" y="416.98" width="6.07" height="6.07" rx="1.6"/><rect class="cls-8" x="277" y="409.7" width="6.07" height="6.07" rx="1.6"/><rect class="cls-8" x="298.58" y="410.01" width="6.07" height="6.07" rx="1.6"/><rect class="cls-8" x="294.54" y="416.98" width="6.07" height="6.07" rx="1.6"/><rect class="cls-8" x="291.5" y="410.01" width="6.07" height="6.07" rx="1.6"/><rect class="cls-8" x="287.37" y="416.98" width="6.07" height="6.07" rx="1.6"/><rect class="cls-8" x="312.9" y="409.7" width="6.07" height="6.07" rx="1.6"/><rect class="cls-8" x="305.64" y="410.01" width="6.07" height="6.07" rx="1.6"/><rect class="cls-8" x="301.61" y="416.98" width="6.07" height="6.07" rx="1.6"/><rect class="cls-8" x="306.83" y="424.48" width="6.07" height="6.07" rx="1.6"/><rect class="cls-8" x="308.68" y="417.35" width="6.07" height="6.07" rx="1.6"/><rect class="cls-8" x="315.93" y="424.48" width="6.07" height="6.07" rx="1.6"/><rect class="cls-8" x="323.2" y="424.48" width="10.68" height="6.07" rx="1.6"/><rect class="cls-8" x="316.66" y="417.09" width="16.29" height="6.07" rx="1.6"/><rect class="cls-8" x="320.17" y="410.01" width="6.07" height="6.07" rx="1.6"/><rect class="cls-8" x="327.35" y="410.01" width="6.07" height="6.07" rx="1.6"/></g><path class="cls-25" d="M338.79,396.55l-94.06-.61a2.46,2.46,0,0,1-2.29-1.56l-11.12-27.86a2.49,2.49,0,0,1,2.31-3.41H348.56a2.48,2.48,0,0,1,2.35,3.29l-9.75,28.47A2.49,2.49,0,0,1,338.79,396.55Z" transform="translate(0.17 0.21)"/></g><g id="koper"><path class="cls-25" d="M256.8,307.34H258a4.3,4.3,0,0,1,4.3,4.73c-.09.9-.18,1.95-.26,3.19-.43,6.38.34,12.06,1,17.49a6.68,6.68,0,0,1-3.71,7.24s-5.44,4.91-8-12.06c-1.57-10.67.2-16.06,1.73-18.6A4.24,4.24,0,0,1,256.8,307.34Z" transform="translate(0.17 0.21)"/><path class="cls-25" d="M327.7,308.36h0a5,5,0,0,0-5,5.52c.07.72.14,1.54.21,2.45.49,6.37-.24,12.07-.88,17.5a6.68,6.68,0,0,0,3.77,7.2s5.49,4.87,7.85-12.12c1.38-9.93-.1-15.28-1.56-18A5,5,0,0,0,327.7,308.36Z" transform="translate(0.17 0.21)"/><path class="cls-25" d="M235.89,311.62,234.4,323.3a3.1,3.1,0,0,0,.15,1.35l7.71,21.58a3,3,0,0,0,2.77,1.94h94.38a2.94,2.94,0,0,0,2.75-1.89l8.21-21.69a3.07,3.07,0,0,0,.19-1.24l-.81-11.56a2.93,2.93,0,0,0-2.93-2.73H312.33a2.93,2.93,0,0,1-2.92-2.67l0-.35a2.93,2.93,0,0,0-2.92-2.67H279.33a2.94,2.94,0,0,0-2.94,2.85h0a2.94,2.94,0,0,1-2.94,2.84H238.81A3,3,0,0,0,235.89,311.62Z" transform="translate(0.17 0.21)"/><line class="cls-25" x1="234.49" y1="324.21" x2="350.77" y2="324.21"/><polygon class="cls-25" points="263.33 336.84 265.59 346.84 256.43 348.39 256.43 340.86 263.33 336.84"/><path class="cls-25" d="M322.28,332l-3.13,16.19H328l3.63-10.69s-2.82,7.58-5.25,4.92S322.28,332,322.28,332Z" transform="translate(0.17 0.21)"/><path class="cls-25" d="M274.81,309.75s-.93,6.89,1.49,8.61,5,2.76,6-4.3L303,314s.34,6.55,2.18,6.09,5.3,2.41,4.73-10.92Z" transform="translate(0.17 0.21)"/></g><path class="cls-27" d="M202.51,383.4A19,19,0,0,0,201,363.86l-1.44,1.47a17.07,17.07,0,0,1,2.71,12.44l-.66-.1-.58-.1c.63-8.44-2.69-14.42-10.69-17.57-6.34-1.84-11.9-.47-16.42,4.33a15.22,15.22,0,0,0-3.76,14.47c.83-.34,1.63-.66,2.41-1a.4.4,0,0,0,.19-.28,2.38,2.38,0,0,1,4.74-.23q1.5,7.33,3,14.67a4.63,4.63,0,0,1,.13,1.43,2.31,2.31,0,0,1-2,2,2.39,2.39,0,0,1-2.45-1.27l-.11-.22a13.51,13.51,0,0,1-1.91,0,5.28,5.28,0,0,1-4.55-4.25c-.1-.44-.2-.88-.27-1.33a4.63,4.63,0,0,0-.92-2.11,17.44,17.44,0,0,1-2.78-6.14,20.36,20.36,0,0,1,1.65-14.59l.24-.44c.21.12.4.21.58.32l.58.32a19.1,19.1,0,0,0-.33,17.69,6.67,6.67,0,0,1,.11-1.19c.16-.6.41-1.18.6-1.77a.94.94,0,0,0,.06-.52,16.91,16.91,0,0,1,1.72-13.72s0,0,0-.1L169,364.24c-.55-.55-.57-.76-.1-1.39a20,20,0,0,1,14.05-8.24,20.49,20.49,0,0,1,19.68,31.5,1.17,1.17,0,0,1-.28.37,1.87,1.87,0,0,0-.68,1.4c-.12.68-.25,1.37-.42,2a5.3,5.3,0,0,1-5.93,4,.51.51,0,0,0-.63.31,2.38,2.38,0,0,1-4.42-1.6q1.54-7.71,3.11-15.42a2.38,2.38,0,0,1,4.71.29c0,.24.13.3.33.36a5.26,5.26,0,0,1,4.08,4.52C202.5,382.7,202.49,383,202.51,383.4Zm-30.9-18.51a17.12,17.12,0,0,1,27-.8l1.43-1.43a19.08,19.08,0,0,0-29.91.77Zm23.52,27.58.14.06a4,4,0,0,0,4.64-3.08c.39-1.82.74-3.64,1.11-5.47a4,4,0,0,0-3.2-4.86Zm-19.46,0L173,379.14a3.92,3.92,0,0,0-3.27,4.45q.53,3,1.19,5.93A3.89,3.89,0,0,0,175.67,392.47Zm-.53-15.84a1,1,0,0,0-1,1.35l3.06,15.16a1,1,0,1,0,2-.43Q178,386.83,176.84,381c-.22-1.13-.45-2.26-.68-3.38A1,1,0,0,0,175.14,376.63Zm21.54,1.18a1,1,0,1,0-2-.22q-1.53,7.57-3,15.16a1.45,1.45,0,0,0,0,.55,1,1,0,0,0,1,.77,1.05,1.05,0,0,0,1-.93q1.29-6.37,2.56-12.74C196.35,379.49,196.53,378.59,196.68,377.81Z" transform="translate(0.17 0.21)"/></g><polyline class="cls-8" points="397.87 303.59 398.09 157.95 354.73 157.95"/><path class="cls-6" d="M239.15,578.38l-7.22-4.76a1,1,0,0,0-.26-.16l-.11-.08v0a.91.91,0,0,0-.23,0H207.6a1.25,1.25,0,0,0-1.06,1.38v8.6a1.25,1.25,0,0,0,1.06,1.38h23.73a.62.62,0,0,0,.23,0v0l.11-.08a1.06,1.06,0,0,0,.26-.17l7.22-4.76A.87.87,0,0,0,239.15,578.38Z" transform="translate(0.17 0.21)"/><path class="cls-6" d="M239.15,651.58l-7.22-4.76a1,1,0,0,0-.26-.16l-.11-.08v0a.91.91,0,0,0-.23,0H207.6a1.25,1.25,0,0,0-1.06,1.38v8.6a1.25,1.25,0,0,0,1.06,1.38h23.73a.93.93,0,0,0,.23,0v0l.11-.08a1.06,1.06,0,0,0,.26-.17l7.22-4.76A.87.87,0,0,0,239.15,651.58Z" transform="translate(0.17 0.21)"/><path class="cls-6" d="M239.15,613.78,231.93,609a1.06,1.06,0,0,0-.26-.17l-.11-.07v0a.91.91,0,0,0-.23,0H207.6a1.24,1.24,0,0,0-1.06,1.37v8.6a1.24,1.24,0,0,0,1.06,1.38h23.73a.91.91,0,0,0,.23,0v0l.11-.08a1,1,0,0,0,.26-.16l7.22-4.76A.87.87,0,0,0,239.15,613.78Z" transform="translate(0.17 0.21)"/><circle class="cls-8" cx="350.63" cy="157.95" r="4.6"/><polyline class="cls-8" points="221.06 337.74 112.94 337.74 112.94 322.27 112.94 305.11"/><circle class="cls-8" cx="112.94" cy="300.51" r="4.6"/><path class="cls-6" d="M117.19,169.84,110,165.09a1.06,1.06,0,0,0-.26-.17l-.11-.08v0a.62.62,0,0,0-.23,0H85.64a1.25,1.25,0,0,0-1.06,1.38v8.6a1.25,1.25,0,0,0,1.06,1.38h23.73a.91.91,0,0,0,.23,0v0l.11-.08A1.06,1.06,0,0,0,110,176l7.22-4.75A.88.88,0,0,0,117.19,169.84Z" transform="translate(0.17 0.21)"/><path class="cls-6" d="M116.51,257.41l-7.22-4.76a1.45,1.45,0,0,0-.26-.17l-.11-.07v0a.91.91,0,0,0-.23,0H85a1.24,1.24,0,0,0-1,1.38v8.6a1.24,1.24,0,0,0,1,1.37h23.74a.91.91,0,0,0,.23,0v0l.11-.07a1.06,1.06,0,0,0,.26-.17l7.22-4.76A.87.87,0,0,0,116.51,257.41Z" transform="translate(0.17 0.21)"/><polyline class="cls-8" points="153.37 371.91 89.03 372.72 89.03 483.35"/><circle class="cls-8" cx="89.02" cy="487.95" r="4.6"/><polyline class="cls-28" points="425.02 394.01 457.96 393.35 457.96 211.13"/><circle class="cls-8" cx="457.96" cy="205.14" r="5.99"/><polyline class="cls-8" points="425.02 447.84 453.37 447.84 453.37 530.46"/><circle class="cls-8" cx="453.37" cy="534.88" r="4.6"/><circle class="cls-8" cx="286.1" cy="524.76" r="4.6"/><polyline class="cls-8" points="184.17 518.48 184.17 636.41 170.13 636.41"/><circle class="cls-8" cx="165.53" cy="636.42" r="4.6"/><path class="cls-10" d="M432.5,161.31a1.1,1.1,0,0,1-.52-.48q-2.93-4.5-5.87-9a7.11,7.11,0,0,1-1.21-4.78,6.89,6.89,0,0,1,1.85-4,7.6,7.6,0,0,1,3.23-2.09,7.74,7.74,0,0,1,3.76-.33,7.56,7.56,0,0,1,5.16,3.11,6.86,6.86,0,0,1,1.23,5.33,7.28,7.28,0,0,1-1.05,2.64l-5.77,9.15a1,1,0,0,1-.51.47Zm.14-1.79a.4.4,0,0,1,.07-.09c1.78-2.83,3.57-5.65,5.34-8.48a5.62,5.62,0,0,0,.61-4.94,6.44,6.44,0,0,0-7.29-4.18,6.26,6.26,0,0,0-5.2,5.29,5.85,5.85,0,0,0,1,4.06q2.67,4.06,5.32,8.15Z" transform="translate(0.17 0.21)"/><path class="cls-10" d="M432.54,151.48a3.66,3.66,0,1,1,3.85-3.65A3.76,3.76,0,0,1,432.54,151.48Zm0-1.22a2.44,2.44,0,1,0-2.56-2.43A2.49,2.49,0,0,0,432.54,150.26Z" transform="translate(0.17 0.21)"/><text class="cls-29" transform="translate(447.49 153.35)">Medan, Indonesia</text><path class="cls-30" d="M423,172.78a2.46,2.46,0,0,1,.09-.29,1.66,1.66,0,0,1,1.6-1.1h15.65a1.66,1.66,0,0,1,1.71,1.19,1.91,1.91,0,0,1,.06.48v9.51a1.64,1.64,0,0,1-1.75,1.67H424.8a1.67,1.67,0,0,1-1.77-1.33l0-.07Zm2-.31.13.13,7,6.68a.67.67,0,0,0,1,0l7-6.68a.6.6,0,0,1,.11-.12Zm0,10.68h15.22l-4.81-4.55-.13.12-1.4,1.34a1.83,1.83,0,0,1-2.55,0l-.84-.81-.69-.66Zm-.82-9.88v9.08l4.79-4.54ZM441,182.36v-9.07l-4.79,4.53Z" transform="translate(0.17 0.21)"/><text class="cls-29" transform="translate(447.49 181.08)">slowy.arfy@gmail.com</text><path class="cls-10" d="M480.36,638.82V608.59a2.25,2.25,0,0,1,1.81-1.86h29.5a5.23,5.23,0,0,1,1,.44,2.21,2.21,0,0,1,.85,2V638.3c0,.13,0,.26,0,.38a2.19,2.19,0,0,1-1.22,1.81c-.19.08-.39.13-.58.2h-29.5a2.11,2.11,0,0,1-1.58-1.25C480.51,639.24,480.44,639,480.36,638.82Zm17.4-11.31a3.16,3.16,0,0,0,1.95,3.06,6.62,6.62,0,0,0,4.74.14,3.36,3.36,0,0,0,2.24-4.07,2.05,2.05,0,0,0-.86-1.32,5.31,5.31,0,0,0-1.64-.84l-1.44-.39c-.74-.21-1.49-.41-2.21-.67a1,1,0,0,1-.55-.53,1.24,1.24,0,0,1,.69-1.61,3.59,3.59,0,0,1,2-.29c.93.09,1.67.42,1.81,1.47h1.88a2.74,2.74,0,0,0-1.79-2.68,7,7,0,0,0-4.13-.18,3.38,3.38,0,0,0-1.86,1.18c-.95,1.18-1,3.73,1.15,4.48.54.18,1.08.34,1.63.51.91.27,1.83.53,2.75.82a1,1,0,0,1,.69.92,1.76,1.76,0,0,1-1.48,1.9,7.45,7.45,0,0,1-1.7.07,2,2,0,0,1-1.9-1.46,2.72,2.72,0,0,1-.08-.51Zm-8.69-1.09h-1.95c0,.46,0,.9.1,1.33a3.59,3.59,0,0,0,2.64,3.13,5.43,5.43,0,0,0,2.91,0,3.06,3.06,0,0,0,2.14-1.92,8.71,8.71,0,0,0,.49-3.31q0-4.93,0-9.87c0-.12,0-.23,0-.36h-2v.4q0,5,0,9.9a15.52,15.52,0,0,1-.15,1.92,1.76,1.76,0,0,1-1.2,1.54,2,2,0,0,1-2.67-1.2A10.11,10.11,0,0,1,489.07,626.42Z" transform="translate(0.17 0.21)"/><path class="cls-10" d="M511.67,640.69c.19-.07.39-.12.58-.2a2.19,2.19,0,0,0,1.22-1.81c0-.12,0-.25,0-.38V609.12a2.21,2.21,0,0,0-.85-2,5.23,5.23,0,0,0-1-.44h1.87v34Z" transform="translate(0.17 0.21)"/><path class="cls-10" d="M480.36,638.82c.08.21.15.42.23.62a2.11,2.11,0,0,0,1.58,1.25h-1.81Z" transform="translate(0.17 0.21)"/><path class="cls-10" d="M482.17,606.73a2.25,2.25,0,0,0-1.81,1.86v-1.86Z" transform="translate(0.17 0.21)"/><path class="cls-3" d="M497.76,627.51h1.91a2.72,2.72,0,0,0,.08.51,2,2,0,0,0,1.9,1.46,7.45,7.45,0,0,0,1.7-.07,1.76,1.76,0,0,0,1.48-1.9,1,1,0,0,0-.69-.92c-.92-.29-1.84-.55-2.75-.82-.55-.17-1.09-.33-1.63-.51-2.15-.75-2.1-3.3-1.15-4.48a3.38,3.38,0,0,1,1.86-1.18,7,7,0,0,1,4.13.18,2.74,2.74,0,0,1,1.79,2.68h-1.88c-.14-1.05-.88-1.38-1.81-1.47a3.59,3.59,0,0,0-2,.29,1.24,1.24,0,0,0-.69,1.61,1,1,0,0,0,.55.53c.72.26,1.47.46,2.21.67l1.44.39a5.31,5.31,0,0,1,1.64.84,2.05,2.05,0,0,1,.86,1.32,3.36,3.36,0,0,1-2.24,4.07,6.62,6.62,0,0,1-4.74-.14A3.16,3.16,0,0,1,497.76,627.51Z" transform="translate(0.17 0.21)"/><path class="cls-3" d="M489.07,626.42a10.11,10.11,0,0,0,.3,1.53,2,2,0,0,0,2.67,1.2,1.76,1.76,0,0,0,1.2-1.54,15.52,15.52,0,0,0,.15-1.92q0-5,0-9.9v-.4h2c0,.13,0,.24,0,.36q0,4.93,0,9.87a8.71,8.71,0,0,1-.49,3.31,3.06,3.06,0,0,1-2.14,1.92,5.43,5.43,0,0,1-2.91,0,3.59,3.59,0,0,1-2.64-3.13c-.07-.43-.06-.87-.1-1.33Z" transform="translate(0.17 0.21)"/><path class="cls-10" d="M445.82,621.11c-.11.63-.2,1.27-.34,1.89a7.55,7.55,0,0,1-1.28,2.9,4.17,4.17,0,0,1-2.11,1.68,5.93,5.93,0,0,1-1.62.23q-7,0-14.07.05h-.48v.9h9.9c0,.42,0,.82,0,1.21-.07,1.37-.16,2.74-.24,4.12a.76.76,0,0,1-.36.57,9.08,9.08,0,0,1-2.6,1.21,17.59,17.59,0,0,1-7.49.69,9.17,9.17,0,0,1-2-.41,8.8,8.8,0,0,1-2-1,3.42,3.42,0,0,1-1.3-2,18.12,18.12,0,0,1-.43-6.72A22.94,22.94,0,0,1,420,623a9.85,9.85,0,0,1,.94-2.1,2.27,2.27,0,0,1,.84-.68,5,5,0,0,1,2.51-.61c1.37,0,2.74,0,4.11,0a22.89,22.89,0,0,0,4.68-.16,4.7,4.7,0,0,0,2.48-1.3,4.19,4.19,0,0,0,1.14-2.18c.28-1.55.5-3.11.75-4.67,0-.19,0-.39.06-.62a6.2,6.2,0,0,1,2.22.32c.58.24,1.21.38,1.75.67a7.24,7.24,0,0,1,2.54,2.35,8.29,8.29,0,0,1,1.19,2.47c.22.81.35,1.65.52,2.48l.06.33ZM429.74,632a2.17,2.17,0,0,0,2.05,2.16,2.17,2.17,0,0,0,0-4.34A2.18,2.18,0,0,0,429.74,632Z" transform="translate(0.17 0.21)"/><path class="cls-10" d="M417.81,627.49a6.4,6.4,0,0,1-2.81-.56c-.21-.11-.44-.17-.64-.28A7.71,7.71,0,0,1,411,623a11.63,11.63,0,0,1-1.09-5.43,9.2,9.2,0,0,1,1.4-4.9,4.5,4.5,0,0,1,2.46-2,5.6,5.6,0,0,1,1.68-.24c4.54,0,9.08,0,13.62,0h.48v-.9h-9.82c0-.05-.06-.07-.06-.09a35,35,0,0,1,.18-5,1.24,1.24,0,0,1,.61-.94,11.62,11.62,0,0,1,3.07-1.26,16.65,16.65,0,0,1,5.39-.61,14.55,14.55,0,0,1,2.71.33,9.23,9.23,0,0,1,2.07.77,3.67,3.67,0,0,1,1.9,2.38,18.63,18.63,0,0,1,.34,7.79,19.22,19.22,0,0,1-.78,3.25,3,3,0,0,1-2.69,2.33,32.64,32.64,0,0,1-3.27.22c-1.78,0-3.56-.07-5.33-.08a6.81,6.81,0,0,0-1.63.21,4.47,4.47,0,0,0-3.44,3.28,32.06,32.06,0,0,0-.91,5.13C417.86,627.26,417.83,627.36,417.81,627.49Zm3.44-21.58a2.07,2.07,0,1,0,4.13,0,2.07,2.07,0,1,0-4.13,0Z" transform="translate(0.17 0.21)"/><path class="cls-10" d="M414.41,675.77a1.76,1.76,0,0,0,.09-.2,3.13,3.13,0,0,1,3-2.14H418v-6.07a2.8,2.8,0,0,1,0-.29.45.45,0,0,1,.49-.42.44.44,0,0,1,.48.43,1.69,1.69,0,0,1,0,.32v6h24v-4.06h-.39c-1.24,0-2.48,0-3.71,0a4.29,4.29,0,0,1-4.08-3.31,5.36,5.36,0,0,1-.13-1.13c0-1.16,0-2.32,0-3.48V661l-.37,0H422.52a3.39,3.39,0,0,0-3.55,3.56c0,.21,0,.42,0,.62a.44.44,0,0,1-.47.44.46.46,0,0,1-.5-.42,4.44,4.44,0,0,1,4.35-5.19H435a1,1,0,0,1,.62.27q4.07,4,8.1,8.09a1,1,0,0,1,.26.63c0,1.45,0,2.9,0,4.38.35,0,.69,0,1,.09a3.05,3.05,0,0,1,2.6,3q0,3.57,0,7.16a3.08,3.08,0,0,1-3,3h-.57c-.06.42-.09.82-.18,1.21a4.29,4.29,0,0,1-4.16,3.33q-8.72,0-17.44,0a4.32,4.32,0,0,1-4.3-4.25,2.19,2.19,0,0,1,0-.29h-.5a3.11,3.11,0,0,1-3-2.18l-.07-.18ZM419,686.65c0,.35.05.64.11.92a3.36,3.36,0,0,0,3.42,2.64h15.39c.62,0,1.25,0,1.88,0a3.38,3.38,0,0,0,3.27-3.55h-4.84a.47.47,0,0,1-.47-.45.49.49,0,0,1,.43-.53h6.21a2.14,2.14,0,0,0,2.32-2.33v-6.57a2.16,2.16,0,0,0-2.33-2.34H417.66a2.16,2.16,0,0,0-2.33,2.33v6.58a2.15,2.15,0,0,0,2.35,2.33h18.55a.5.5,0,0,1,.48.51.49.49,0,0,1-.49.47H419Zm16.75-24.86c0,1.2-.07,2.37,0,3.53a3.31,3.31,0,0,0,3.33,3h3l.21,0Z" transform="translate(0.17 0.21)"/><path class="cls-10" d="M427.76,681.76c-.1.37-.2.72-.31,1.07s-.27.38-.58.28a.39.39,0,0,1-.3-.54c.54-1.76,1.09-3.51,1.62-5.27a.56.56,0,0,1,.59-.41.58.58,0,0,1,.63.41c.54,1.77,1.07,3.54,1.62,5.3.1.31-.08.43-.31.51s-.48,0-.56-.25-.17-.61-.27-.9a.33.33,0,0,0-.23-.19C429,681.75,428.4,681.76,427.76,681.76ZM428,681h1.65l-.79-2.71h-.07Z" transform="translate(0.17 0.21)"/><path class="cls-10" d="M436.63,681.76l-.31,1.06c-.09.3-.26.38-.57.3s-.4-.26-.32-.54c.54-1.77,1.09-3.53,1.63-5.3a.55.55,0,0,1,.61-.39.56.56,0,0,1,.6.39l1.62,5.31c.08.28,0,.44-.32.53s-.47,0-.55-.28-.17-.6-.27-.9a.29.29,0,0,0-.21-.17C437.91,681.75,437.28,681.76,436.63,681.76Zm1.07-3.48h-.07l-.8,2.74h1.66Z" transform="translate(0.17 0.21)"/><path class="cls-10" d="M433.24,681.9c.42-1.45.82-2.83,1.21-4.21,0-.14.08-.29.13-.43a.38.38,0,0,1,.54-.29c.32.1.41.25.32.55l-1.59,5.25a.56.56,0,0,1-.61.42.58.58,0,0,1-.63-.44c-.52-1.73-1.06-3.45-1.6-5.18-.1-.34,0-.51.33-.6s.46,0,.56.35l1.23,4.24C433.15,681.65,433.19,681.74,433.24,681.9Z" transform="translate(0.17 0.21)"/><path class="cls-10" d="M424.93,677.76h-.83c-.3,0-.41-.16-.4-.44a.34.34,0,0,1,.41-.38h1.33c.35,0,.45.11.45.46v3.9A1.65,1.65,0,0,1,425,683a2.24,2.24,0,0,1-2.31-.2,1.4,1.4,0,0,1-.59-1.21c0-.28.12-.43.4-.44s.47.08.52.38a.92.92,0,0,0,1.11.86.84.84,0,0,0,.85-.89c0-1.2,0-2.4,0-3.61A.54.54,0,0,0,424.93,677.76Z" transform="translate(0.17 0.21)"/><text class="cls-31" transform="translate(480.53 689.15)">C++</text><path class="cls-8" d="M184,498.33" transform="translate(0.17 0.21)"/><line class="cls-8" x1="184.17" y1="524.34" x2="184.19" y2="476.34"/><polyline class="cls-8" points="184.17 480.08 286.1 480.08 286.1 520.43"/><text class="cls-32" transform="translate(248.42 619.32)">Sman 3 Langsa</text><text class="cls-33" transform="translate(248.42 632.03)">Aceh, Indonesia</text><text class="cls-32" transform="translate(248.42 584.31)">Smpn 2 Langsa</text><text class="cls-33" transform="translate(248.42 596.16)">Aceh, Indonesia</text><text class="cls-32" transform="translate(246.55 656.32)">Universitas<tspan x="0" y="16.8">Panca Budi</tspan></text><text class="cls-33" transform="translate(246.55 686.41)">Medan, Indonesia</text><text class="cls-34" transform="translate(211.06 617.57)">2017</text><text class="cls-34" transform="translate(211.06 582.67)">2014</text><text class="cls-34" transform="translate(211.06 655.18)">2021</text><polyline class="cls-8" points="184.17 636.41 184.19 712.43 170.13 712.43"/><circle class="cls-8" cx="165.53" cy="712.43" r="4.6"/><text class="cls-35" transform="translate(123.89 262.58)">GOOGLE LLC</text><text class="cls-36" transform="translate(88.7 261.43)">2020</text><text class="cls-29" transform="translate(124.58 285.37)">singapore</text><text class="cls-35" transform="translate(123.89 176.41)">WPU</text><text class="cls-36" transform="translate(88.38 173.6)">2021</text><text class="cls-29" transform="translate(124.58 195.32)">indonesia</text><path class="cls-10" d="M76.43,556.68v.6s0,0,0,.05a2.3,2.3,0,0,1-3.87,1.54c-.12-.12-.2-.07-.3,0l-1.83,1.29-.76.54.16.37a6.31,6.31,0,0,1-3.16,8.27,13.2,13.2,0,0,1-1.4.4h-1.1a.43.43,0,0,0-.16,0,5.32,5.32,0,0,1-3.7-2.28,20.42,20.42,0,0,1-1.06-1.87l-2.06.53c0,.2,0,.37-.06.55a2.43,2.43,0,0,1-2.21,2.09,2.37,2.37,0,0,1-2.3-1.7,2.62,2.62,0,0,1,1.25-3.18,2.23,2.23,0,0,1,3,1.06c.08.14.14.19.3.14l1.77-.46a1,1,0,0,0,.2-.08,6.56,6.56,0,0,1,1.45-5.07l-1.84-2.2A5.28,5.28,0,0,1,53,558c-.26.5-.5,1-.75,1.45a.3.3,0,0,0,0,.41,2.65,2.65,0,0,1-.25,3.75,2.17,2.17,0,0,1-2.48.27,2.59,2.59,0,0,1-1.3-2.42,2.56,2.56,0,0,1,1.58-2.27,2.31,2.31,0,0,1,1.47,0l.85-1.67a6.47,6.47,0,0,1,.3-10.41l-1.29-3-.16,0a2.18,2.18,0,0,1-2.31-1,2.55,2.55,0,0,1-.2-2.57,2.22,2.22,0,0,1,2.15-1.44,2.33,2.33,0,0,1,2.13,1.61,2.64,2.64,0,0,1-.58,2.79.32.32,0,0,0-.08.43c.35.78.69,1.57,1,2.35l.15.33c3-.93,5.34.07,7,2.9l5.15-2.37a6.45,6.45,0,0,1-.07-3.54L64,543a.28.28,0,0,0-.23.11,2.21,2.21,0,0,1-3.43.4,2.69,2.69,0,0,1-.55-3.06,2.28,2.28,0,0,1,2.68-1.32,2.53,2.53,0,0,1,1.75,2.64c0,.09,0,.23.12.26.44.19.9.37,1.34.54l.06-.06a2,2,0,0,1,.1-.21,5.5,5.5,0,0,1,4.77-3.25,5.68,5.68,0,0,1,5.68,4.69c.07.27.11.54.17.81v1.2c0,.1-.05.19-.06.29a5.75,5.75,0,0,1-6,5.24c-.35,0-.7-.1-1.07-.16L67,558a6.09,6.09,0,0,1,2.1,1.81l2.56-1.8a.32.32,0,0,0,.14-.43,2.65,2.65,0,0,1,1-2.78,2.21,2.21,0,0,1,2.75.12A2.85,2.85,0,0,1,76.43,556.68Zm-10.66-8.62-5.14,2.38a6.6,6.6,0,0,1-1.23,6.1l1.84,2.2a5.25,5.25,0,0,1,4.9-1l2.29-6.9A6.36,6.36,0,0,1,65.77,548.06Zm.58,16.83a3.64,3.64,0,0,1,1.87,2.05,5.41,5.41,0,0,0-.57-7.28,4.45,4.45,0,0,0-6.81,1,5.27,5.27,0,0,0,.3,6.22,3.6,3.6,0,0,1,1.83-2,2.73,2.73,0,0,1,.09-3.64,2.19,2.19,0,0,1,3.19,0A2.73,2.73,0,0,1,66.35,564.89Zm8-16.39a5.35,5.35,0,0,0-.26-7,4.42,4.42,0,0,0-6.78.24,5.34,5.34,0,0,0,0,6.7,3.63,3.63,0,0,1,1.84-2,2.73,2.73,0,0,1,0-3.6,2.22,2.22,0,0,1,3-.27,2.55,2.55,0,0,1,.93,1.54,2.75,2.75,0,0,1-.6,2.33A3.64,3.64,0,0,1,74.33,548.5Zm-20.76,5.14a2.75,2.75,0,0,1,0-3.61,2.21,2.21,0,0,1,3-.22,2.54,2.54,0,0,1,.9,1.56,2.66,2.66,0,0,1-.58,2.21,8.67,8.67,0,0,1,1.08.89,9.46,9.46,0,0,1,.79,1.16,5.37,5.37,0,0,0-.29-6.91,4.44,4.44,0,0,0-6.66.07,5.39,5.39,0,0,0-.18,6.87A3.51,3.51,0,0,1,53.57,553.64ZM58,556.47a2.37,2.37,0,0,0-1.68-2,4,4,0,0,0-2.18,0,2.32,2.32,0,0,0-1.6,1.77.32.32,0,0,0,.09.29A4.31,4.31,0,0,0,58,556.47Zm6.65,12.26a4.51,4.51,0,0,0,2.62-.88.25.25,0,0,0,.1-.32,2.4,2.4,0,0,0-2.07-1.85,9.26,9.26,0,0,0-1.29,0,2.38,2.38,0,0,0-2,1.76.35.35,0,0,0,.15.46A4.6,4.6,0,0,0,64.66,568.73Zm6.14-21.46c-.24,0-.48,0-.72,0a2.39,2.39,0,0,0-2,1.85.4.4,0,0,0,.11.31,4.37,4.37,0,0,0,5.22,0,.26.26,0,0,0,.1-.33,2.59,2.59,0,0,0-.85-1.35A2.4,2.4,0,0,0,70.8,547.27Zm-8.95-4.13a1.47,1.47,0,0,0,1.41-1.52,1.42,1.42,0,1,0-2.82,0A1.47,1.47,0,0,0,61.85,543.14Zm10.34,1.54a1.41,1.41,0,1,0-2.81,0,1.41,1.41,0,1,0,2.81,0ZM50.56,560A1.54,1.54,0,1,0,52,561.55,1.46,1.46,0,0,0,50.56,560Zm2.83,6.1a1.41,1.41,0,1,0,1.43-1.5A1.47,1.47,0,0,0,53.39,566.14ZM52,541.6a1.41,1.41,0,1,0-2.82,0,1.41,1.41,0,1,0,2.82,0Zm22.1,16.89a1.54,1.54,0,1,0-1.4-1.52A1.47,1.47,0,0,0,74.07,558.49Zm-10.81,4.59a1.41,1.41,0,1,0,1.41-1.51A1.48,1.48,0,0,0,63.26,563.08Zm-6.6-11.23a1.46,1.46,0,0,0-1.4-1.53,1.49,1.49,0,0,0-1.42,1.54,1.51,1.51,0,0,0,1.42,1.52A1.49,1.49,0,0,0,56.66,551.85Z" transform="translate(0.17 0.21)"/><text class="cls-37" transform="translate(41.02 582.65)">Team Work</text><path class="cls-30" d="M128.85,535.05l.65.45,1.53,1.07c.22.15.46.28.69.41a3.6,3.6,0,0,1,1.12,5.12.66.66,0,0,0,0,.58c.13.52.53.69.92.94a25.36,25.36,0,0,1,2.5,1.74,4.24,4.24,0,0,1-.86,7.17l-.21.11c.32,1,.63,2,.94,3s.61,1.94.91,2.91c.14.44-.06.79-.43.79s-.48-.22-.57-.51l-1.53-4.9c-.41-1.31-.83-2.62-1.25-4l-1.53.42c.31,1.31.6,2.59.9,3.87.71,3,1.41,6.05,2.15,9.07a21.85,21.85,0,0,0,2.62,6c.06.11.23.16.34.24.08-.14.22-.28.22-.42a24.31,24.31,0,0,0-1.05-7.53c0-.1-.07-.19-.09-.29a.52.52,0,0,1,.36-.66.5.5,0,0,1,.63.35q.19.6.36,1.23a25.81,25.81,0,0,1,.84,7,1.32,1.32,0,0,1-1,1.32,1.27,1.27,0,0,1-1.5-.66c-.62-1.15-1.2-2.31-1.79-3.48l-.09-.17c-.37.48-.71,1-1.12,1.45a6.44,6.44,0,0,1-3.44,1.83c-1,.23-2,.38-3,.55a.53.53,0,0,1-.66-.45.52.52,0,0,1,.53-.57,16.78,16.78,0,0,0,3.78-.82,4.85,4.85,0,0,0,3.2-3.31,1.06,1.06,0,0,0,0-.5c-.33-1.34-.66-2.67-1-4a1.27,1.27,0,0,0-.39-.65c-.47-.36-1-.65-1.5-1a12,12,0,0,1-1.78-1.24,2.26,2.26,0,0,1,0-3.49,11,11,0,0,1,1.66-1.17c.15-.1.26-.16.2-.37-.15-.6-.28-1.21-.43-1.83a1.18,1.18,0,0,1-.27,0,2.32,2.32,0,0,1-.72-.36,2.54,2.54,0,0,1-.37-2.27.61.61,0,0,0,0-.33c-.29-1.08-.58-2.16-.88-3.24,0-.13-.11-.26-.09-.37.08-.47-.21-.67-.57-.85a1.25,1.25,0,0,1-.42-.3,1.33,1.33,0,0,0-1.09-.4,15.33,15.33,0,0,0-10.5,3.35,12.41,12.41,0,0,0-4.84,8.56,12,12,0,0,0,3,9.5,14.86,14.86,0,0,0,9.82,5.06l.58.06c.47,0,.69.22.67.57s-.27.5-.75.47a16.72,16.72,0,0,1-4.88-1.11,14.62,14.62,0,0,1-8-6.89,12.84,12.84,0,0,1,.93-14.09,15.19,15.19,0,0,1,10.39-6.3,28.62,28.62,0,0,1,3.07-.22h.31a15.37,15.37,0,0,1-.17-1.62,4.15,4.15,0,0,1,.61-1.79c.38-.77.74-1.56,1.08-2.36a1.42,1.42,0,0,1,.69-.68Zm-.22,1.18a8.61,8.61,0,0,1-.33.85c-.32.65-.7,1.27-1,1.94a2.82,2.82,0,0,0-.27,1.3,2.78,2.78,0,0,0,1.86,2.34.53.53,0,0,0,.33,0c.75-.19,1.5-.4,2.24-.6a.54.54,0,0,0,.26-.16c.92-1.26,1.06-3.11-.62-4.07l-.42-.26C130,537.14,129.34,536.69,128.63,536.23Zm4.77,8.38c.16.62.31,1.15.45,1.69a.89.89,0,0,0,.38.57,1.38,1.38,0,0,1,.43.6,5.08,5.08,0,0,1,.24.87,1.13,1.13,0,0,1-.47,1.27c-.07,0-.16.16-.14.22.17.59.36,1.18.56,1.8a3.91,3.91,0,0,0,.37-.2,3.21,3.21,0,0,0,.46-5.18c-.49-.42-1-.79-1.55-1.18C133.92,544.92,133.69,544.8,133.4,544.61Zm-.5,2.18c-.32-1.2-.64-2.37-1-3.54-.06-.23-.22-.19-.39-.14-.62.17-1.24.35-1.87.5-.28.07-.31.21-.24.46.2.7.39,1.4.58,2.1.12.43.23.87.35,1.31Zm-.42,11.62-1.07-4.63c-.38.24-.71.43-1,.66-1.2.9-1.21,1.89,0,2.76C131,557.65,131.74,558,132.48,558.41Zm1.16-10.74-3.46,1,.29,1,3.46-.94Z" transform="translate(0.17 0.21)"/><path class="cls-30" d="M118.87,556.37a3.17,3.17,0,1,1-3.17-3.18A3.17,3.17,0,0,1,118.87,556.37Zm-1,0a2.13,2.13,0,1,0-2.14,2.14A2.13,2.13,0,0,0,117.83,556.36Z" transform="translate(0.17 0.21)"/><path class="cls-30" d="M118.21,552.28a2.78,2.78,0,1,1,2.79-2.76A2.77,2.77,0,0,1,118.21,552.28Zm0-1a1.74,1.74,0,1,0-1.73-1.75A1.73,1.73,0,0,0,118.21,551.24Z" transform="translate(0.17 0.21)"/><path class="cls-30" d="M119.32,565.5a2.72,2.72,0,1,1,2.73-2.7A2.72,2.72,0,0,1,119.32,565.5Zm1.69-2.7a1.68,1.68,0,1,0-1.69,1.65A1.65,1.65,0,0,0,121,562.8Z" transform="translate(0.17 0.21)"/><path class="cls-30" d="M124.36,549.36a2.72,2.72,0,1,1,2.71-2.71A2.71,2.71,0,0,1,124.36,549.36Zm0-1a1.67,1.67,0,1,0-1.69-1.66A1.66,1.66,0,0,0,124.37,548.32Z" transform="translate(0.17 0.21)"/><path class="cls-30" d="M125.77,562.12A2.72,2.72,0,1,1,123,564.8,2.72,2.72,0,0,1,125.77,562.12Zm0,1a1.67,1.67,0,1,0,1.66,1.68A1.65,1.65,0,0,0,125.76,563.17Z" transform="translate(0.17 0.21)"/><text class="cls-37" transform="translate(107.8 582.65)">Drawing</text><text class="cls-5" transform="translate(43.03 717.02)">Certificate</text><path class="cls-10" d="M81.7,655.8v19.94a.88.88,0,0,1-.91.47l-1.8,0-11.23,0H59c-2.57,0-5.13,0-7.7,0a.89.89,0,0,1-.91-.47V655.8a1,1,0,0,1,.9-.43H80.8A.94.94,0,0,1,81.7,655.8Zm-1.34,8.68H70.92a2.68,2.68,0,0,1-.4,0,.63.63,0,0,1-.34-1.09,2,2,0,0,1,.35-.24l9.52-5.71c.38-.22.39-.26.28-.7a1.43,1.43,0,0,0-1,.2c-1.58,1-3.19,1.92-4.78,2.87l-6,3.61a.72.72,0,0,1-.85,0,.75.75,0,0,1-.28-.7v-6h-2.6v5.92a1.58,1.58,0,0,1,0,.31.64.64,0,0,1-1,.52l-.27-.15c-3.58-2.15-7.17-4.29-10.75-6.45a1.45,1.45,0,0,0-1-.15.55.55,0,0,0,.31.73l9.53,5.69a1.86,1.86,0,0,1,.32.23.58.58,0,0,1,.18.64.61.61,0,0,1-.52.45,2.55,2.55,0,0,1-.39,0H51.77v2.6h9.78a.63.63,0,0,1,.57.48.59.59,0,0,1-.23.67l-.28.19-9.5,5.68c-.42.26-.42.26-.32.76a1.44,1.44,0,0,0,1-.2q4.71-2.85,9.44-5.66c.51-.3,1-.62,1.52-.9a.64.64,0,0,1,1,.51c0,.11,0,.21,0,.31v5.93h2.6v-6.05c0-.73.49-1,1.12-.65l.26.16,10.7,6.41a1.32,1.32,0,0,0,.9.14c.13-.39,0-.59-.35-.78l-9.47-5.66a3.37,3.37,0,0,1-.31-.21.6.6,0,0,1-.21-.65.62.62,0,0,1,.54-.47,1.88,1.88,0,0,1,.34,0h9.48ZM63.43,656.7H55l8.45,5.06Zm5.26,5.06,8.38-5,0,0H68.69Zm-5.26,13.11v-5.06L55,674.87Zm13.72,0-8.46-5.06v5.06Zm-25.41-2,7.37-4.41H51.74Zm28.64,0v-4.41H73Zm-28.64-9.66h7.37l-7.37-4.42Zm21.27,0h7.36v-4.41Z" transform="translate(0.17 0.21)"/><path class="cls-10" d="M123.74,675.79H107.62c-.57,0-.58,0-.58-.58V656.37c0-.57,0-.58.58-.58h32.31c.56,0,.58,0,.58.58v18.84c0,.56,0,.58-.58.58Zm16.13-.62v-9.38H107.68v9.38Z" transform="translate(0.17 0.21)"/><path class="cls-10" d="M63.27,742.19a1.41,1.41,0,0,1-.46.62L58,747.09l-.15.13.17.07,1.56.48c.17.05.32.12.36.31a.43.43,0,0,1-.2.44c-.22.19-.42.38-.64.56a.18.18,0,0,0-.07.23c.09.25.15.5.23.75a.41.41,0,0,1-.07.45.43.43,0,0,1-.47.08L56.92,750l-.13,0c0,.06,0,.1,0,.14l.54,1.77a.39.39,0,0,1-.06.46.41.41,0,0,1-.48.08l-.72-.22a.19.19,0,0,0-.25.07c-.18.22-.38.43-.57.65a.4.4,0,0,1-.74-.17c-.17-.57-.35-1.14-.52-1.71L54,751a.46.46,0,0,1-.07.16L51.35,754a1.29,1.29,0,0,1-.16.17.24.24,0,0,1-.34,0,.23.23,0,0,1,0-.35.41.41,0,0,1,.1-.13l2.73-3.08.19-.22a.56.56,0,0,0-.48-.11,1.12,1.12,0,0,1-1.33-.68.87.87,0,0,0-.32-.31A1.14,1.14,0,0,1,51,748a1.49,1.49,0,0,0,0-.47h-.06l-.14.11-5.22,4.62a.47.47,0,0,0-.16.5,3.4,3.4,0,0,0,.77,1.42,5.62,5.62,0,0,0,1.89,1.57l.15.07c.57.21.65.2,1.05-.26l.65-.74c.15-.16.31-.19.44-.07s.11.26,0,.42c-.3.35-.61.7-.92,1a1,1,0,0,1-1.06.22,4.34,4.34,0,0,1-1.64-.94,5.66,5.66,0,0,1-1.61-2,3.61,3.61,0,0,1-.24-.87.79.79,0,0,1,.3-.7l5.42-4.8a.75.75,0,0,0,.24-.38,1.75,1.75,0,0,1,.32-.58,1,1,0,0,0,.27-.53,1.08,1.08,0,0,1,1-1,.77.77,0,0,0,.46-.22,1.16,1.16,0,0,1,.76-.4c.07,0,.13-.08.18-.13l2.3-2.59.13-.13a.25.25,0,0,1,.33,0,.25.25,0,0,1,0,.34.61.61,0,0,1-.12.15L54.42,744l-.12.15a.48.48,0,0,0,.47.1,1.15,1.15,0,0,1,1.34.68.71.71,0,0,0,.31.31,1.13,1.13,0,0,1,.67,1.32,1.91,1.91,0,0,0,0,.47l.06,0L62,742.79a6.23,6.23,0,0,1-3.47-3.47.83.83,0,0,1-.07.13l-1,1.11c-.16.17-.31.19-.44.07s-.11-.27,0-.43c.54-.61,1.08-1.22,1.63-1.82a1.8,1.8,0,0,1,.46-.29h.39a5.1,5.1,0,0,1,.69.24,5.81,5.81,0,0,1,3,3.46Zm-6.68,4.13a.55.55,0,0,0-.36-.55,1.25,1.25,0,0,1-.64-.64.56.56,0,0,0-.68-.35,1.28,1.28,0,0,1-.86-.12.56.56,0,0,0-.78.11,1.21,1.21,0,0,1-.81.4.56.56,0,0,0-.51.52,1.27,1.27,0,0,1-.39.79.56.56,0,0,0-.12.8,1.21,1.21,0,0,1,.12.83.58.58,0,0,0,.35.71,1.17,1.17,0,0,1,.62.62.58.58,0,0,0,.72.35,1.12,1.12,0,0,1,.8.12.58.58,0,0,0,.82-.12,1.3,1.3,0,0,1,.78-.39.54.54,0,0,0,.53-.5,1.27,1.27,0,0,1,.41-.83.55.55,0,0,0,.11-.76,1.2,1.2,0,0,1-.13-.87S56.58,746.36,56.59,746.32Zm2.76-7.69c-.18,0-.27.08-.28.28a.9.9,0,0,0,0,.28.28.28,0,0,0,.14.12c.15.05.31.07.45.13a4.58,4.58,0,0,1,1.78,1.46A2.38,2.38,0,0,1,62,742c0,.23.15.28.34.3s.42-.1.36-.39a2.14,2.14,0,0,0-.17-.56A5.87,5.87,0,0,0,60.3,739,2,2,0,0,0,59.35,738.63ZM58.66,750c-.07-.25-.13-.45-.2-.66a.14.14,0,0,0-.07-.08l-1.63-.51-.15.62Zm-1.87,1.87-.64-2-.61.16c.17.54.33,1.07.5,1.6a.17.17,0,0,0,.1.1C56.34,751.76,56.54,751.81,56.79,751.88Zm-1.7-1.51-.66.23.58,1.86c.17-.21.33-.38.48-.57a.14.14,0,0,0,0-.14C55.38,751.29,55.23,750.83,55.09,750.37Zm4.14-2.14-1.85-.57-.23.65,1.4.44a.16.16,0,0,0,.13,0Zm.25-8.29a5.46,5.46,0,0,0,1.94,1.94A4,4,0,0,0,59.48,739.94Z" transform="translate(0.17 0.21)"/><path class="cls-10" d="M56.12,747.3a2.06,2.06,0,1,1-2-2.06A2.06,2.06,0,0,1,56.12,747.3Zm-.54,0a1.52,1.52,0,1,0-1.51,1.51A1.52,1.52,0,0,0,55.58,747.29Z" transform="translate(0.17 0.21)"/><text class="cls-38" transform="translate(70.38 748.63)">GdG Cloud Thessaloniki</text><path class="cls-10" d="M61.26,776.16a1.38,1.38,0,0,1-.46.63L56,781.06l-.15.14.17.06,1.56.48c.17,0,.32.12.36.31a.43.43,0,0,1-.2.45l-.64.55a.18.18,0,0,0-.06.23c.08.25.15.51.23.76a.42.42,0,0,1-.08.45.43.43,0,0,1-.46.08L54.91,784l-.12,0s0,.1,0,.14c.18.59.36,1.17.55,1.76a.41.41,0,0,1-.55.55l-.72-.22a.2.2,0,0,0-.25.06c-.18.22-.38.44-.56.65a.44.44,0,0,1-.44.19c-.18,0-.25-.19-.3-.35-.18-.57-.35-1.14-.53-1.71l-.07-.06a.56.56,0,0,1-.07.16L49.35,788a1.29,1.29,0,0,1-.16.17.26.26,0,0,1-.35,0,.26.26,0,0,1,0-.36l.1-.12,2.73-3.08.2-.22a.54.54,0,0,0-.48-.11,1.13,1.13,0,0,1-1.34-.68.82.82,0,0,0-.32-.32A1.12,1.12,0,0,1,49,782a2.37,2.37,0,0,0,0-.46l-.06,0-.15.12-5.22,4.62a.45.45,0,0,0-.16.49,3.68,3.68,0,0,0,.77,1.43,5.84,5.84,0,0,0,1.89,1.57l.15.06c.57.22.65.2,1.05-.25.22-.25.43-.5.65-.74s.31-.19.44-.08.12.27,0,.43c-.3.35-.6.69-.92,1a1,1,0,0,1-1.06.21,4.26,4.26,0,0,1-1.64-.93,6,6,0,0,1-1.61-2,3.29,3.29,0,0,1-.23-.87.76.76,0,0,1,.3-.7l5.42-4.8a.78.78,0,0,0,.23-.38,1.86,1.86,0,0,1,.33-.58,1.06,1.06,0,0,0,.26-.53,1.09,1.09,0,0,1,1-1,.65.65,0,0,0,.45-.22,1.21,1.21,0,0,1,.76-.4.32.32,0,0,0,.18-.12l2.31-2.6.12-.12a.24.24,0,0,1,.33,0,.25.25,0,0,1,0,.34,1.58,1.58,0,0,1-.12.15L52.42,778l-.12.14a.45.45,0,0,0,.46.11,1.15,1.15,0,0,1,1.34.68.84.84,0,0,0,.31.31,1.13,1.13,0,0,1,.68,1.32,2.37,2.37,0,0,0,0,.46l.07,0L60,776.77a6.23,6.23,0,0,1-3.47-3.47.83.83,0,0,1-.07.13c-.33.37-.65.74-1,1.1-.15.17-.3.2-.43.08s-.12-.27,0-.43c.53-.61,1.07-1.23,1.62-1.83a2.35,2.35,0,0,1,.46-.28h.4a4.34,4.34,0,0,1,.69.24,5.79,5.79,0,0,1,3,3.46Zm-6.68,4.14a.57.57,0,0,0-.35-.56,1.23,1.23,0,0,1-.65-.64.56.56,0,0,0-.67-.34,1.26,1.26,0,0,1-.87-.13.56.56,0,0,0-.77.12,1.31,1.31,0,0,1-.82.4.55.55,0,0,0-.51.52,1.26,1.26,0,0,1-.38.79.57.57,0,0,0-.13.8,1.26,1.26,0,0,1,.13.83.55.55,0,0,0,.35.7,1.33,1.33,0,0,1,.62.62.55.55,0,0,0,.71.35,1.17,1.17,0,0,1,.8.12.58.58,0,0,0,.82-.11,1.25,1.25,0,0,1,.79-.39.53.53,0,0,0,.52-.5,1.3,1.3,0,0,1,.41-.83.54.54,0,0,0,.11-.76,1.2,1.2,0,0,1-.13-.87S54.57,780.34,54.58,780.3Zm2.76-7.69c-.17,0-.27.08-.28.27a.71.71,0,0,0,0,.29c0,.05.08.1.14.12s.3.06.44.12a4.55,4.55,0,0,1,1.78,1.47A2.35,2.35,0,0,1,60,776c0,.23.14.28.33.29s.42-.09.37-.38a2.16,2.16,0,0,0-.18-.56,5.79,5.79,0,0,0-2.23-2.37A2,2,0,0,0,57.34,772.61ZM56.66,784c-.08-.25-.14-.46-.2-.66a.18.18,0,0,0-.08-.09l-1.63-.5-.15.61Zm-1.88,1.87-.63-2.05-.62.15c.17.55.33,1.07.5,1.6a.21.21,0,0,0,.1.11Zm-1.69-1.51-.66.23.57,1.85.49-.56a.22.22,0,0,0,0-.14Q53.3,785,53.09,784.35Zm4.13-2.14-1.85-.57-.23.65,1.4.43a.15.15,0,0,0,.13,0Zm.25-8.3a5.49,5.49,0,0,0,1.94,2A4,4,0,0,0,57.47,773.91Z" transform="translate(0.17 0.21)"/><path class="cls-10" d="M54.11,781.27a2.05,2.05,0,1,1-2-2.06A2,2,0,0,1,54.11,781.27Zm-.54,0a1.51,1.51,0,1,0-1.51,1.52A1.52,1.52,0,0,0,53.57,781.26Z" transform="translate(0.17 0.21)"/><text class="cls-38" transform="translate(66.16 783.9)">Google developer certificate</text><text class="cls-39" transform="translate(201.1 748.79)">Chrome Developer Summit</text><path class="cls-10" d="M194.8,740.5a1.38,1.38,0,0,1-.46.63l-4.82,4.27-.15.14a1.15,1.15,0,0,0,.17.06l1.56.48a.46.46,0,0,1,.36.31.44.44,0,0,1-.21.45l-.63.55a.18.18,0,0,0-.07.23c.08.25.15.51.23.76a.41.41,0,0,1-.07.45.45.45,0,0,1-.47.08l-1.78-.55-.13,0s0,.1,0,.14c.18.59.36,1.17.55,1.76a.41.41,0,0,1-.55.55l-.72-.22a.2.2,0,0,0-.25.06c-.18.22-.37.44-.56.65a.43.43,0,0,1-.44.19c-.18,0-.25-.19-.3-.35-.17-.57-.35-1.14-.53-1.71l-.06-.07a.6.6,0,0,1-.08.16l-2.52,2.86a1.21,1.21,0,0,1-.16.16.24.24,0,0,1-.34,0,.26.26,0,0,1,0-.36l.1-.12,2.73-3.08.2-.22a.53.53,0,0,0-.48-.11,1.12,1.12,0,0,1-1.33-.68.85.85,0,0,0-.33-.32,1.12,1.12,0,0,1-.66-1.31,2.37,2.37,0,0,0,0-.46l-.06,0-.15.12-5.22,4.62a.45.45,0,0,0-.15.49,3.44,3.44,0,0,0,.77,1.43,5.64,5.64,0,0,0,1.89,1.57l.14.06c.58.22.66.2,1.05-.25l.66-.74c.14-.17.31-.19.43-.08s.12.27,0,.43l-.92,1a1,1,0,0,1-1.07.21,4.15,4.15,0,0,1-1.63-.93,6,6,0,0,1-1.62-2,3.26,3.26,0,0,1-.23-.88.77.77,0,0,1,.3-.69l5.42-4.8a.78.78,0,0,0,.23-.38,1.86,1.86,0,0,1,.33-.58,1.06,1.06,0,0,0,.26-.53,1.09,1.09,0,0,1,1-1,.65.65,0,0,0,.45-.22,1.21,1.21,0,0,1,.76-.4.39.39,0,0,0,.19-.12l2.3-2.6a.74.74,0,0,1,.13-.12.22.22,0,0,1,.32,0,.24.24,0,0,1,.05.34.79.79,0,0,1-.12.15L186,742.33l-.12.14a.47.47,0,0,0,.47.11,1.15,1.15,0,0,1,1.33.68.84.84,0,0,0,.31.31,1.12,1.12,0,0,1,.68,1.32,2.37,2.37,0,0,0,0,.46l.07,0,4.81-4.27a6.27,6.27,0,0,1-3.46-3.47l-.08.13c-.32.37-.65.73-1,1.1-.15.17-.3.2-.43.08s-.11-.27,0-.43c.54-.61,1.07-1.23,1.62-1.83a2.35,2.35,0,0,1,.46-.28h.4a4,4,0,0,1,.69.24,5.79,5.79,0,0,1,3,3.46Zm-6.68,4.14a.57.57,0,0,0-.35-.56,1.23,1.23,0,0,1-.65-.64.55.55,0,0,0-.67-.34,1.26,1.26,0,0,1-.87-.13.56.56,0,0,0-.77.12,1.31,1.31,0,0,1-.82.4.55.55,0,0,0-.51.52,1.21,1.21,0,0,1-.38.79.58.58,0,0,0-.13.8,1.2,1.2,0,0,1,.13.83.56.56,0,0,0,.35.7,1.33,1.33,0,0,1,.62.62.56.56,0,0,0,.72.35,1.14,1.14,0,0,1,.79.12.58.58,0,0,0,.82-.11,1.22,1.22,0,0,1,.79-.39.53.53,0,0,0,.52-.5,1.34,1.34,0,0,1,.41-.83.55.55,0,0,0,.12-.76,1.2,1.2,0,0,1-.13-.87S188.12,744.68,188.12,744.64Zm2.76-7.69c-.17,0-.27.08-.27.27a.92.92,0,0,0,0,.29.24.24,0,0,0,.14.12c.14,0,.3.06.44.12a4.55,4.55,0,0,1,1.78,1.47,2.35,2.35,0,0,1,.54,1.08c0,.23.14.28.33.29s.43-.09.37-.38a2.16,2.16,0,0,0-.18-.56,5.72,5.72,0,0,0-2.23-2.37A1.94,1.94,0,0,0,190.88,737Zm-.68,11.38c-.08-.25-.14-.46-.2-.66a.14.14,0,0,0-.08-.09l-1.62-.5-.16.61Zm-1.88,1.87-.63-2.05-.61.15c.16.54.32,1.07.49,1.6a.21.21,0,0,0,.1.11Zm-1.69-1.51-.66.23.57,1.85.49-.56a.17.17,0,0,0,0-.14Q186.84,749.37,186.63,748.69Zm4.14-2.14-1.86-.58-.23.66,1.41.43a.18.18,0,0,0,.12,0Zm.24-8.3a5.49,5.49,0,0,0,1.94,2A4,4,0,0,0,191,738.25Z" transform="translate(0.17 0.21)"/><path class="cls-10" d="M187.65,745.61a2.05,2.05,0,1,1-2.05-2.06A2,2,0,0,1,187.65,745.61Zm-.54,0a1.51,1.51,0,1,0-1.5,1.52A1.52,1.52,0,0,0,187.11,745.6Z" transform="translate(0.17 0.21)"/><path class="cls-40" d="M184,712.21" transform="translate(0.17 0.21)"/><path class="cls-25" d="M184,712.21" transform="translate(0.17 0.21)"/><line class="cls-8" x1="184.19" y1="712.43" x2="321.15" y2="712.43"/><circle class="cls-8" cx="325.75" cy="712.43" r="4.6"/><text class="cls-5" transform="translate(347.09 720.02)">Interest</text><path class="cls-10" d="M365.59,765.45a10.92,10.92,0,0,1-1.51-.57,2.94,2.94,0,0,1-1.21-1.28.35.35,0,0,0-.36-.22,3.75,3.75,0,0,1-3.82-3.52.44.44,0,0,0,0-.1h-.74c-.32,0-.49-.17-.5-.43a.42.42,0,0,1,.48-.45,3.22,3.22,0,0,0,2.08-.65.44.44,0,1,1,.51.72,5.16,5.16,0,0,1-.71.43.33.33,0,0,0-.21.37,2.81,2.81,0,0,0,1.71,2.48,2.78,2.78,0,0,0,2.94-.33l.21-.17c.26-.21.51-.21.69,0a.43.43,0,0,1-.14.68c-.35.26-.72.47-1.09.7l-.24.11a2.71,2.71,0,0,0,4.8-.25h-.59a.42.42,0,0,1-.46-.41.43.43,0,0,1,.43-.47,3,3,0,0,1,.42,0h.41v-3.3c-.57,0-1.15,0-1.71.09a1.32,1.32,0,0,0-1,1.18.61.61,0,0,1-.13.41.57.57,0,0,1-.46.12.61.61,0,0,1-.29-.42A2.19,2.19,0,0,1,367,758a16.22,16.22,0,0,1,1.71,0v-6.17h-7.16a.45.45,0,0,1-.48-.43.47.47,0,0,1,.45-.46h7.2v-7.5h-3.49a2.37,2.37,0,0,1-2.45-2.21c0-.36.12-.56.4-.58s.45.16.49.51a1.4,1.4,0,0,0,1.32,1.37c1.23,0,2.47,0,3.72,0v-3H368c-.35,0-.55-.17-.54-.45s.2-.43.55-.44h.65l.06,0a2.66,2.66,0,0,0-5-1.33l.29.13a3.71,3.71,0,0,1,2.27,3.26c0,.4-.12.62-.41.63s-.45-.19-.48-.57a2.81,2.81,0,0,0-1.75-2.51,2.9,2.9,0,0,0-4,2.57c0,.17,0,.33,0,.5,0,.35-.21.51-.56.47a6.27,6.27,0,0,0-1.29-.09,2.85,2.85,0,0,0-2.33,3.73l1.09-.24a3.82,3.82,0,0,1,.68,0,.43.43,0,0,1,.5.39c0,.25-.15.44-.45.49a11.79,11.79,0,0,0-1.19.19,4.21,4.21,0,0,0-1.08,7.62c.45-.37.88-.73,1.32-1.07a.39.39,0,0,1,.56,0,.69.69,0,0,1,.08.51c0,.12-.19.21-.31.29a2.84,2.84,0,0,0-1.32,2,2.8,2.8,0,0,0,.46,2c.07.12.16.22.24.34a.44.44,0,0,1-.7.53,3.64,3.64,0,0,1-.87-1.82,3.48,3.48,0,0,1,.13-1.78c.06-.19,0-.26-.14-.36a5.11,5.11,0,0,1-.21-8.41l.39-.27a3.69,3.69,0,0,1,.62-3.68,3.75,3.75,0,0,1,3.45-1.38c0-.27.07-.52.13-.77a3.77,3.77,0,0,1,3.67-2.89.41.41,0,0,0,.42-.24,3.58,3.58,0,0,1,6.7,1.53c0,.08,0,.16,0,.26a8.74,8.74,0,0,0,.89,0c.08,0,.17-.13.22-.22a1.52,1.52,0,0,1,1.62-.8,1.49,1.49,0,0,1,1.23,1.24,1.51,1.51,0,0,1-1,1.66,1.47,1.47,0,0,1-1.82-.65.53.53,0,0,0-.6-.33,5.6,5.6,0,0,1-.58,0v2.94l.26,0c1.06,0,2.12,0,3.18,0a.89.89,0,0,0,.57-.24c.5-.47,1-1,1.48-1.48a1.61,1.61,0,0,1-.18-1.27,1.53,1.53,0,0,1,1.86-1,1.5,1.5,0,0,1-.72,2.92.4.4,0,0,0-.44.13c-.45.46-.91.89-1.34,1.35a1.61,1.61,0,0,1-1.25.52c-1,0-2.06,0-3.09,0h-.34v1.83l.31,0h4.34a1.5,1.5,0,0,1,1.15.47c.21.23.45.45.67.67s.31.55.11.75-.45.17-.75-.12-.44-.46-.68-.67a.68.68,0,0,0-.41-.19H369.7l-.1,0v2.54c.35,0,.67,0,1,0,.08,0,.15-.13.2-.22a1.52,1.52,0,0,1,2.88.67,1.53,1.53,0,0,1-1.16,1.48,1.52,1.52,0,0,1-1.73-.83.28.28,0,0,0-.31-.2h-.86a1.62,1.62,0,0,0,0,.18v3.05l.3,0H374a.34.34,0,0,0,.37-.24,1.51,1.51,0,0,1,2.86.67,1.51,1.51,0,0,1-1.15,1.47,1.48,1.48,0,0,1-1.7-.78.37.37,0,0,0-.4-.24h-4.33v3l.23,0h3.38a.31.31,0,0,0,.34-.21,1.49,1.49,0,0,1,1.73-.81,1.51,1.51,0,0,1,0,2.94,1.54,1.54,0,0,1-1.71-.83c0-.09-.15-.2-.24-.2h-3.62l-.07,0V760h2.21a1.36,1.36,0,0,1,1,.42c.28.29.57.56.84.84a.35.35,0,0,0,.41.11,1.51,1.51,0,1,1-1.06,1.87,1.27,1.27,0,0,1,.08-1,.26.26,0,0,0-.07-.35c-.28-.26-.53-.54-.81-.8a.58.58,0,0,0-.32-.18c-.77,0-1.54,0-2.34,0v.74a3.56,3.56,0,0,1-3.09,3.78l-.08,0ZM377,739.94a.65.65,0,0,0-.64-.62.64.64,0,0,0-.61.64.63.63,0,0,0,1.25,0Zm-4.85,9.83a.62.62,0,0,0,.62-.62.65.65,0,0,0-.61-.61.63.63,0,0,0-.63.62A.61.61,0,0,0,372.15,749.77Zm2.34,13.67a.61.61,0,0,0,.63-.61.62.62,0,0,0-.62-.62.62.62,0,0,0,0,1.23Zm1.81-10.14a.62.62,0,0,0-.62-.62.64.64,0,0,0-.62.62.66.66,0,0,0,.61.62A.64.64,0,0,0,376.3,753.3Zm-4.84-14.17a.6.6,0,0,0,.64.59.61.61,0,0,0,.6-.61.64.64,0,0,0-.63-.61A.62.62,0,0,0,371.46,739.13Zm3.46,17.42a.65.65,0,0,0-.62.63.62.62,0,0,0,1.24,0A.64.64,0,0,0,374.92,756.55Z" transform="translate(0.17 0.21)"/><path class="cls-10" d="M381,750.5a1.51,1.51,0,1,1-2.93-.57.31.31,0,0,0-.08-.39,8.08,8.08,0,0,1-.66-.65.45.45,0,1,1,.63-.62c.22.21.44.42.65.65a.31.31,0,0,0,.39.08A1.51,1.51,0,0,1,381,750.5Zm-1.5-.69a.61.61,0,0,0-.63.61.62.62,0,0,0,.6.61.6.6,0,0,0,.63-.6A.59.59,0,0,0,379.5,749.81Z" transform="translate(0.17 0.21)"/><path class="cls-10" d="M358.23,748.28H358a.4.4,0,0,1-.42-.37.39.39,0,0,1,.33-.48c.21-.05.43-.06.64-.12a1.82,1.82,0,0,0,1.28-1.91,1.84,1.84,0,0,0-1.67-1.65.65.65,0,0,1-.2,0,.43.43,0,0,1-.39-.48.42.42,0,0,1,.47-.39,2.56,2.56,0,0,1,1.93.84,2.71,2.71,0,0,1-1.41,4.53A2.62,2.62,0,0,1,358.23,748.28Z" transform="translate(0.17 0.21)"/><path class="cls-10" d="M361.08,754.21H363c.36,0,.55.16.55.44s-.2.45-.55.45h-3.5a1.39,1.39,0,0,0-1.58,1.33c0,.34-.21.5-.49.48s-.4-.22-.39-.56a2.24,2.24,0,0,1,2.1-2.12c.65,0,1.3,0,2,0Z" transform="translate(0.17 0.21)"/><path class="cls-10" d="M380.42,757.27a1.51,1.51,0,1,1,1.52-1.5A1.52,1.52,0,0,1,380.42,757.27Zm0-.9a.61.61,0,0,0,.62-.61.62.62,0,0,0-.62-.62.65.65,0,0,0-.62.61A.62.62,0,0,0,380.42,756.37Z" transform="translate(0.17 0.21)"/><path class="cls-10" d="M378.92,745.86a1.51,1.51,0,1,1,1.53-1.49A1.52,1.52,0,0,1,378.92,745.86Zm0-.9a.61.61,0,1,0,0-1.22.63.63,0,0,0-.64.61A.62.62,0,0,0,378.94,745Z" transform="translate(0.17 0.21)"/><path class="cls-10" d="M378.5,758.91a1.5,1.5,0,0,1,1.5,1.51,1.52,1.52,0,1,1-3,0A1.51,1.51,0,0,1,378.5,758.91Zm0,.89a.62.62,0,1,0,.6.63A.62.62,0,0,0,378.5,759.8Z" transform="translate(0.17 0.21)"/><path class="cls-10" d="M363.5,758.4a2.25,2.25,0,0,1-2.18,2.22.45.45,0,0,1-.48-.39.42.42,0,0,1,.4-.48,1.5,1.5,0,0,0,1-.43,1.28,1.28,0,0,0,.3-1.34,1.29,1.29,0,0,0-1.09-.89c-.47-.07-.65-.23-.6-.52s.28-.41.73-.35A2.23,2.23,0,0,1,363.5,758.4Z" transform="translate(0.17 0.21)"/><path class="cls-10" d="M367.82,747.64a2,2,0,0,1-1.91,2c-.3,0-.48-.13-.51-.38a.44.44,0,0,1,.41-.49,2.71,2.71,0,0,0,.41-.09,1.05,1.05,0,0,0,.68-1.1,1.08,1.08,0,0,0-.88-.92l-.23,0a.42.42,0,0,1-.39-.47.43.43,0,0,1,.47-.4,2,2,0,0,1,1.8,1.28C367.74,747.19,367.77,747.42,367.82,747.64Z" transform="translate(0.17 0.21)"/><path class="cls-10" d="M361,749.25a1.53,1.53,0,0,1-.5-.29c-.22-.28,0-.59.41-.67a4.14,4.14,0,0,0,1.07-.31,2.11,2.11,0,0,0,1.17-1.68,2.89,2.89,0,0,0,0-.29c0-.3.23-.48.48-.46a.46.46,0,0,1,.41.53,3.24,3.24,0,0,1-.5,1.62A3.52,3.52,0,0,1,361,749.25Z" transform="translate(0.17 0.21)"/><path class="cls-10" d="M358.16,751.79a3,3,0,0,1-1.72-.32,2.38,2.38,0,0,1-1.18-2,.44.44,0,1,1,.88-.07,1.5,1.5,0,0,0,1.72,1.48h.95c.34,0,.54.19.54.46s-.21.42-.54.43Z" transform="translate(0.17 0.21)"/><path class="cls-10" d="M362.59,738.82a1.47,1.47,0,0,1,.21,0,.39.39,0,0,1,.37.42.39.39,0,0,1-.41.44,1.1,1.1,0,0,0-1.17,1,.43.43,0,0,1-.5.36.46.46,0,0,1-.36-.55A1.9,1.9,0,0,1,362.59,738.82Z" transform="translate(0.17 0.21)"/><path class="cls-10" d="M365.81,754.21h.89a.42.42,0,0,1,.46.41.42.42,0,0,1-.43.47c-.61,0-1.23,0-1.84,0a.42.42,0,0,1-.44-.45c0-.26.17-.42.47-.43Z" transform="translate(0.17 0.21)"/><text class="cls-41" transform="translate(333.72 778.96)">Artificial intelligence</text><text class="cls-35" transform="translate(124.58 217.87)">Bellshade</text><path class="cls-6" d="M117.19,212.7,110,207.94a1.4,1.4,0,0,0-.26-.16l-.11-.08v0a.91.91,0,0,0-.23,0H85.64a1.25,1.25,0,0,0-1.06,1.38v8.6a1.25,1.25,0,0,0,1.06,1.38h23.73a.62.62,0,0,0,.23,0v0l.11-.08a1.06,1.06,0,0,0,.26-.17l7.22-4.75A.88.88,0,0,0,117.19,212.7Z" transform="translate(0.17 0.21)"/><text class="cls-36" transform="translate(89.38 216.72)">2021</text><text class="cls-29" transform="translate(124.58 235.55)">indonesia</text><path class="cls-10" d="M433.82,733.83a.69.69,0,0,1,.3.7c0,.34,0,.67,0,1s-.2.56-.46.55-.45-.21-.45-.56,0-.69,0-1a.67.67,0,0,1,.31-.66Z" transform="translate(0.17 0.21)"/><path class="cls-10" d="M431.82,756.9v3.32h1.38v-.31c0-1.17,0-2.34,0-3.51,0-.25.05-.47.3-.57s.61.11.62.52,0,1.11,0,1.67v2.2h.94v-1.13c0-.76,0-1.52,0-2.28a.8.8,0,0,0-.17-.5q-1.62-1.71-3.25-3.4l-.09-.07c-.65.36-.83.33-1.36-.23l-.58-.6a.82.82,0,0,1,0-1.14c.26-.28.52-.56.8-.83a.72.72,0,0,1,1.11,0,11.5,11.5,0,0,1,.84.87c.31.36.26.72-.19,1.32a1.41,1.41,0,0,1,.27.18c1,1,2,2.06,3,3.07A2,2,0,0,1,436,757c0,1,0,1.92,0,2.87v.36h.65V755l-.29-.05a.78.78,0,0,1-.59-.75q0-.63,0-1.26a.77.77,0,0,1,.77-.78h1.13a.78.78,0,0,1,.78.83c0,.33,0,.67,0,1,0,.63-.22.89-.85,1v2.55l.81-.47a9.66,9.66,0,0,0,3.5-4c0-.08.08-.17.13-.25a.45.45,0,1,1,.79.44,16.58,16.58,0,0,1-1,1.74,10,10,0,0,1-4,3.4.41.41,0,0,0-.28.48,6.77,6.77,0,0,1,0,.78.94.94,0,0,0,.35.91,2.27,2.27,0,0,1,0,2.59,1.67,1.67,0,0,1-.68.3,3.41,3.41,0,0,1-.72,0c0,.42,0,.81,0,1.21.07,1.13-.39,1.55-1.46,1.51s-2.36,0-3.54,0a1,1,0,0,1-1.14-1.16v-1.55h-.7a1,1,0,0,1-1-1,8.83,8.83,0,0,1,0-1.26,1.06,1.06,0,0,1,.51-.85.37.37,0,0,0,.16-.29c0-.43,0-.87,0-1.3a.35.35,0,0,0-.24-.37,10.17,10.17,0,0,1-4.07-3.49,10.88,10.88,0,0,1-1.94-6.67,10.73,10.73,0,0,1,2-6,10.08,10.08,0,0,1,6-4.17,9.66,9.66,0,0,1,5.68.27.58.58,0,0,0,.57,0,.66.66,0,0,1,.84.15c.16.15.31.31.46.47a.28.28,0,0,0,.37.1.32.32,0,0,0,.21-.36q0-.33,0-.66a.79.79,0,0,1,.79-.79h1.62a.76.76,0,0,1,.77.77c0,.2,0,.4,0,.6s0,.33.2.43.31,0,.44-.14a4.17,4.17,0,0,1,.41-.43.72.72,0,0,1,1.07,0c.41.4.81.81,1.19,1.23a.8.8,0,0,1,0,1.09c-.15.18-.34.33-.48.52a.43.43,0,0,0,0,.35.41.41,0,0,0,.26.22,5,5,0,0,0,.67,0,.77.77,0,0,1,.78.76c0,.59,0,1.18,0,1.77a.78.78,0,0,1-.78.77h-.58a.32.32,0,0,0-.38.22.34.34,0,0,0,.11.43c.16.15.31.31.45.47a.8.8,0,0,1,0,1.07c-.38.43-.78.85-1.21,1.25a2.89,2.89,0,0,1-.68.32c0,.26,0,.6-.08.94s-.23.52-.51.5-.42-.26-.39-.61.05-.94.07-1.42c0-.11,0-.22,0-.33-.44,0-.48.08-.48.48,0,.21,0,.42,0,.63a.75.75,0,0,1-.72.72q-.85,0-1.71,0a.76.76,0,0,1-.73-.64c0-.13,0-.28,0-.41s.18-.57-.2-.74-.43.24-.65.37-.12.13-.19.19a.72.72,0,0,1-1.05,0c-.43-.4-.84-.83-1.23-1.27a.8.8,0,0,1,0-1,3.69,3.69,0,0,1,.38-.41c.29-.31.29-.31.08-.74h-.84a.78.78,0,0,1-.78-.8c0-.57,0-1.14,0-1.71a.77.77,0,0,1,.75-.79h.61c.16,0,.28,0,.36-.2a.35.35,0,0,0-.09-.44,4.07,4.07,0,0,1-.41-.42.81.81,0,0,1,0-1.18,3.16,3.16,0,0,1,.44-.38l0-.15c-.7-.13-1.39-.31-2.09-.37a8.94,8.94,0,0,0-6.57,2,9.64,9.64,0,0,0-3.58,6.42,9.84,9.84,0,0,0,5.62,10.41.8.8,0,0,1,.55.86c0,.56,0,1.12,0,1.69h.6v-3.32c-.18-.07-.39-.09-.5-.21a1.15,1.15,0,0,1-.34-.59,9.39,9.39,0,0,1,0-1.3.75.75,0,0,1,.74-.76h1.16a.77.77,0,0,1,.78.77q0,.63,0,1.26C432.68,756.53,432.44,756.74,431.82,756.9Zm9.66-18.64h-1.36c0,.72.06,1.37-.76,1.73s-1.25-.16-1.66-.61l-1,1c.55.47,1,.94.64,1.78s-1,.8-1.65.79v1.41c.66,0,1.27-.07,1.62.71s0,1.37-.59,1.85l1,1c.43-.52.86-1,1.69-.64s.77,1,.76,1.72h1.36c0-.74,0-1.38.78-1.73s1.24.18,1.66.62l1-1c-.5-.47-1-.92-.63-1.77s1-.83,1.67-.8v-1.41c-.71,0-1.34,0-1.67-.82s.15-1.29.64-1.77l-1-1c-.44.47-.85,1-1.69.64S441.45,739,441.48,738.26Zm-8,24.27h3c.88,0,.88,0,.88-.91,0-.41,0-.42-.42-.42h-6.47c-.93,0-.93,0-.92,1,0,.27.1.36.36.36Zm-2.11,2.28c-.06.43-.06.43.31.43h3.6c.39,0,.41,0,.31-.43Zm0-1h4.27v-.31h-4.27Zm.21-12.4-.56-.57-.6.57.58.58Zm6,1.66c-.24,0-.45,0-.65,0s-.18.1-.18.17a5.71,5.71,0,0,0,0,.72h.84Zm-5.73,2.81V755H431v.87Z" transform="translate(0.17 0.21)"/><path class="cls-10" d="M434.12,749.45v2.62a1.61,1.61,0,0,1,0,.31.45.45,0,0,1-.48.43.44.44,0,0,1-.42-.46c0-.4,0-.8,0-1.2v-1.7a3.15,3.15,0,0,1-.39-.1.82.82,0,0,1-.5-.8c0-.37,0-.73,0-1.1a.8.8,0,0,1,.86-.85h1a.78.78,0,0,1,.83.84c0,.35,0,.69,0,1a.8.8,0,0,1-.75.93Zm-.87-1.89v.89h.82v-.89Z" transform="translate(0.17 0.21)"/><path class="cls-10" d="M429.47,745.52h.4a.83.83,0,0,1,.93.94c0,.35,0,.69,0,1a.79.79,0,0,1-.8.84h-1.1a.79.79,0,0,1-.79-.83c0-.36,0-.73,0-1.1a.81.81,0,0,1,.88-.89Zm.39,1.86v-.89h-.81v.89Z" transform="translate(0.17 0.21)"/><path class="cls-10" d="M430.2,743.29c0-.22,0-.44,0-.66a.74.74,0,0,1,.67-.72c.44,0,.88,0,1.31,0a.75.75,0,0,1,.69.75c0,.42,0,.84,0,1.26a.79.79,0,0,1-.8.78H431a.78.78,0,0,1-.79-.81c0-.2,0-.4,0-.6Zm.93.44H432v-.86h-.83Z" transform="translate(0.17 0.21)"/><path class="cls-10" d="M420.94,748c-.41,0-.81-.09-1.21-.16a.46.46,0,0,1-.44-.53.48.48,0,0,1,.57-.4c.39,0,.78.09,1.17.15a.47.47,0,0,1,.43.52A.49.49,0,0,1,420.94,748Z" transform="translate(0.17 0.21)"/><path class="cls-10" d="M427.07,738c-.07.08-.15.27-.28.32a.49.49,0,0,1-.46-.08,9.35,9.35,0,0,1-.83-1.31.51.51,0,0,1,.15-.47.55.55,0,0,1,.51,0c.33.44.6.92.89,1.38A.83.83,0,0,1,427.07,738Z" transform="translate(0.17 0.21)"/><path class="cls-10" d="M422,744.3a3.22,3.22,0,0,1-.33-.08c-.36-.16-.73-.31-1.08-.49a.47.47,0,0,1-.28-.61.44.44,0,0,1,.63-.25c.39.16.77.33,1.15.51a.43.43,0,0,1,.24.55A1.5,1.5,0,0,1,422,744.3Z" transform="translate(0.17 0.21)"/><path class="cls-10" d="M420,752.12c-.3,0-.47-.11-.53-.36a.43.43,0,0,1,.31-.54,12.69,12.69,0,0,1,1.37-.25.39.39,0,0,1,.45.37.42.42,0,0,1-.31.53C420.83,752,420.38,752.05,420,752.12Z" transform="translate(0.17 0.21)"/><path class="cls-10" d="M429.16,735.08c0-.34.11-.51.33-.57a.38.38,0,0,1,.51.23,14.71,14.71,0,0,1,.41,1.44.44.44,0,0,1-.82.27C429.42,736,429.29,735.48,429.16,735.08Z" transform="translate(0.17 0.21)"/><path class="cls-10" d="M424.3,740.44c0,.4-.37.66-.64.46a10.34,10.34,0,0,1-1.13-1,.42.42,0,0,1,0-.57.37.37,0,0,1,.54-.12c.4.31.77.65,1.15,1C424.28,740.28,424.28,740.4,424.3,740.44Z" transform="translate(0.17 0.21)"/><path class="cls-10" d="M421.23,756.24c-.17-.15-.36-.24-.39-.37a.63.63,0,0,1,.11-.53,8.29,8.29,0,0,1,1.32-.69.49.49,0,0,1,.45.19c.08.12.08.44,0,.5C422.26,755.66,421.76,755.93,421.23,756.24Z" transform="translate(0.17 0.21)"/><path class="cls-10" d="M424.61,757.72c.1.1.27.18.32.31a.56.56,0,0,1,0,.46,12.88,12.88,0,0,1-1,1,.38.38,0,0,1-.57-.1.41.41,0,0,1,0-.57c.32-.35.66-.68,1-1A1.45,1.45,0,0,1,424.61,757.72Z" transform="translate(0.17 0.21)"/><path class="cls-10" d="M444,743.63a3.37,3.37,0,0,1-2.45,3.19,3.12,3.12,0,0,1-3.5-1.61,3.21,3.21,0,0,1,.23-3.53,3,3,0,0,1,3.38-1.22c.4.11.55.32.47.63s-.31.38-.7.29a2.21,2.21,0,0,0-2.65,1.24,2.44,2.44,0,0,0,.47,2.68,2.14,2.14,0,0,0,2.65.36A2.38,2.38,0,0,0,443,743.2c0-.12-.05-.23-.07-.34a.48.48,0,0,1,.32-.57.45.45,0,0,1,.56.35C443.9,743,443.94,743.3,444,743.63Z" transform="translate(0.17 0.21)"/><path class="cls-10" d="M440.8,745.28a1.66,1.66,0,1,1,1.61-1.67A1.63,1.63,0,0,1,440.8,745.28Zm0-.95a.69.69,0,0,0,.66-.72.68.68,0,0,0-.69-.69.71.71,0,0,0,0,1.41Z" transform="translate(0.17 0.21)"/><text class="cls-41" transform="translate(416.89 778.96)">techology</text><polyline class="cls-28" points="457.96 238.3 505.32 238.3 505.32 264.85"/><circle class="cls-8" cx="505.32" cy="270.84" r="5.99"/><text class="cls-5" transform="translate(477.79 301.34)">social</text><path class="cls-10" d="M489.4,329.42h-9.23c-.32-.07-.65-.11-1-.21a4.26,4.26,0,0,1-3-4.1q0-4.25,0-8.51a4.1,4.1,0,0,1,.8-2.5,4.24,4.24,0,0,1,3.58-1.8h8.27a5,5,0,0,1,.87.07A4.17,4.17,0,0,1,493,315a9.3,9.3,0,0,1,.3,1.21v9.22l-.06.36a4.21,4.21,0,0,1-2.66,3.28A8.72,8.72,0,0,1,489.4,329.42Zm2.5-8.56h0v-4.18a2.83,2.83,0,0,0-.26-1.28,2.78,2.78,0,0,0-2.63-1.67h-8.48a4.38,4.38,0,0,0-.5,0,2.81,2.81,0,0,0-2.37,2.67c0,2.91,0,5.83,0,8.74a2.43,2.43,0,0,0,.25,1.13,2.8,2.8,0,0,0,2.68,1.68H489a5.46,5.46,0,0,0,.57,0,2.83,2.83,0,0,0,2.37-2.64C491.92,323.82,491.9,322.34,491.9,320.86Z" transform="translate(0.17 0.21)"/><path class="cls-10" d="M484.76,325.14a4.28,4.28,0,1,1,4.3-4.25A4.3,4.3,0,0,1,484.76,325.14Zm0-1.43a2.85,2.85,0,1,0-2.86-2.84A2.84,2.84,0,0,0,484.79,323.71Z" transform="translate(0.17 0.21)"/><path class="cls-10" d="M489.41,317.29a1.07,1.07,0,0,1,0-2.14,1.07,1.07,0,0,1,0,2.14Z" transform="translate(0.17 0.21)"/><text class="cls-42" transform="translate(499.33 324.46)">arfy.slowy</text><text class="cls-29" transform="translate(123.89 274.51)">Software egineer</text><text class="cls-29" transform="translate(124.58 226.61)">Owner</text><text class="cls-29" transform="translate(124.58 186.17)">Moderator</text><path class="cls-43" d="M497.61,759.54l.62-9.55h.58a.54.54,0,0,0,.61-.61q0-.47,0-.93a1.58,1.58,0,0,0-.86-1.46c-.07,0-.19-.11-.18-.16,0-.31-.1-.62.12-.92a2.1,2.1,0,0,0-1-3.19.35.35,0,0,1-.25-.36,2.66,2.66,0,0,0-4.6-1.59c-.06.07-.11.16-.18.24a3.9,3.9,0,0,0-2.67-1.11,3.21,3.21,0,0,0-6-.95,3.24,3.24,0,0,0-5.12,2h0a2.66,2.66,0,0,0-2.22,4.65.31.31,0,0,1,.11.22c0,.3,0,.61,0,.91a1.65,1.65,0,0,0-1.59,1.5c0,.39,0,.77,0,1.16a.52.52,0,0,0,.55.54h.53c0,.14,0,.23,0,.33l.15,2.25.84,11.61c0,.53.2.68.72.68h5.66v2.58a1.59,1.59,0,0,0,1.64,1.67H494a.64.64,0,0,0,.65-.41c.16-.33.33-.66.53-1.05.19.38.37.7.51,1a.68.68,0,0,0,.7.43h8.76a1.59,1.59,0,0,0,1.7-1.7q0-3.07,0-6.14a1.6,1.6,0,0,0-1.72-1.72h-7.52Z" transform="translate(0.17 0.21)"/><path class="cls-10" d="M497.61,759.54h7.52a1.6,1.6,0,0,1,1.72,1.72q0,3.06,0,6.14a1.59,1.59,0,0,1-1.7,1.7h-8.76a.68.68,0,0,1-.7-.43c-.14-.33-.32-.65-.51-1-.2.39-.37.72-.53,1.05a.64.64,0,0,1-.65.41h-8.86a1.59,1.59,0,0,1-1.64-1.67v-2.58h-5.66c-.52,0-.68-.15-.72-.68l-.84-11.61-.15-2.25c0-.1,0-.19,0-.33h-.53a.52.52,0,0,1-.55-.54c0-.39,0-.77,0-1.16a1.65,1.65,0,0,1,1.59-1.5c0-.3,0-.61,0-.91a.31.31,0,0,0-.11-.22A2.66,2.66,0,0,1,478.7,741h0a3.24,3.24,0,0,1,5.12-2,3.21,3.21,0,0,1,6,.95,3.9,3.9,0,0,1,2.67,1.11c.07-.08.12-.17.18-.24a2.66,2.66,0,0,1,4.6,1.59.35.35,0,0,0,.25.36,2.1,2.1,0,0,1,1,3.19c-.22.3-.11.61-.12.92,0,0,.11.12.18.16a1.58,1.58,0,0,1,.86,1.46q0,.46,0,.93a.54.54,0,0,1-.61.61h-.58Zm-.31-12.75v-.55a1,1,0,0,1,.2-.8,1,1,0,0,0,.25-1.16,1.06,1.06,0,0,0-1-.67.53.53,0,0,1-.54-.69,1.58,1.58,0,0,0-1.14-1.9,1.61,1.61,0,0,0-1.93,1,.88.88,0,0,1-.45.42c-.24.09-.42-.08-.57-.29a2.6,2.6,0,0,0-2.62-1.2c-.42,0-.62-.15-.68-.57a3.09,3.09,0,0,0-.24-.95,2.06,2.06,0,0,0-2.1-1.15,2.12,2.12,0,0,0-1.83,1.59c-.06.27-.16.49-.44.56a.56.56,0,0,1-.6-.27,2.1,2.1,0,0,0-2.44-.69,2.13,2.13,0,0,0-1.36,2.1c0,.61-.33.85-.86.6a1.58,1.58,0,0,0-2.13.61,1.56,1.56,0,0,0,.52,2.12.7.7,0,0,1,.34.67c0,.39,0,.78,0,1.18Zm-7.92,13.81h-4.14c-.49,0-.68.19-.68.66v6.13c0,.46.2.64.65.65h8.33a.35.35,0,0,0,.37-.24c.24-.51.48-1,.76-1.51a.92.92,0,0,1,.5-.36c.25-.06.42.14.53.36.25.51.51,1,.75,1.52a.34.34,0,0,0,.38.23h8.29c.48,0,.67-.19.67-.66v-6.13c0-.46-.19-.65-.65-.65h-8.32a.36.36,0,0,0-.38.24c-.24.51-.47,1-.76,1.51a.84.84,0,0,1-.5.36c-.25.06-.41-.14-.52-.37-.25-.49-.51-1-.74-1.48a.4.4,0,0,0-.43-.26Zm-8-10.6v13.76h2.1v-2.61a1.53,1.53,0,0,1,.81-1.39.44.44,0,0,0,.26-.46c0-3,0-6,0-9V750Zm-1.11,13.78V750h-3.12l1,13.77Zm8.5-4.25V750h-3.14v9.52Zm1.1-9.53v9.52H493V750Zm4.24,0v9.5c.69.23.64,1,1.07,1.45.12-.23.24-.44.34-.66.2-.44.37-.89,1-.74l.61-9.55Zm4.21-1.09c.08-.91,0-1-.91-1H476.9a2.17,2.17,0,0,0-.36,0,.49.49,0,0,0-.46.45,5.8,5.8,0,0,0,0,.59Z" transform="translate(0.17 0.21)"/><path class="cls-10" d="M484.56,743.6a2.13,2.13,0,0,1-1.89,2.13c-.43,0-.71-.12-.76-.45a.59.59,0,0,1,.62-.62,1,1,0,0,0,1-1,1.07,1.07,0,0,0-1-1.07c-.43,0-.65-.26-.62-.58s.31-.52.74-.48A2.13,2.13,0,0,1,484.56,743.6Z" transform="translate(0.17 0.21)"/><path class="cls-10" d="M488.82,745.21a2.13,2.13,0,0,1-2.12-1.89c-.05-.43.11-.71.45-.76a.58.58,0,0,1,.61.62,1,1,0,0,0,1,1,1.07,1.07,0,0,0,1.08-1c.05-.42.25-.64.57-.61s.53.31.48.73A2.13,2.13,0,0,1,488.82,745.21Z" transform="translate(0.17 0.21)"/><path class="cls-10" d="M489.36,761.67h3c.5,0,.68.18.68.68,0,1.31,0,2.63,0,3.94,0,.5-.18.68-.68.68H486.3c-.5,0-.68-.18-.68-.68v-3.95c0-.49.18-.67.68-.67Zm2.62,1.08h-5.27v3.15H492Z" transform="translate(0.17 0.21)"/><path class="cls-10" d="M501,767H498c-.47,0-.66-.18-.66-.66v-4c0-.48.19-.66.66-.66h6.11c.47,0,.66.18.66.66v4c0,.48-.19.66-.66.66Zm-2.64-1.08h5.26v-3.15h-5.26Z" transform="translate(0.17 0.21)"/><text class="cls-41" transform="translate(479.16 780.31)">movies</text><text class="cls-44" transform="translate(246.09 230.77)">If you can dream it<tspan x="9.08" y="10.53">you can make it</tspan></text></g></g></svg>